<?xml version="1.0" encoding="utf-8" standalone="no"?>
<!DOCTYPE svg PUBLIC "-//W3C//DTD SVG 1.1//EN"
  "http://www.w3.org/Graphics/SVG/1.1/DTD/svg11.dtd">
<!-- Created with matplotlib (https://matplotlib.org/) -->
<svg height="576pt" version="1.1" viewBox="0 0 576 576" width="576pt" xmlns="http://www.w3.org/2000/svg" xmlns:xlink="http://www.w3.org/1999/xlink">
 <metadata>
  <rdf:RDF xmlns:cc="http://creativecommons.org/ns#" xmlns:dc="http://purl.org/dc/elements/1.1/" xmlns:rdf="http://www.w3.org/1999/02/22-rdf-syntax-ns#">
   <cc:Work>
    <dc:type rdf:resource="http://purl.org/dc/dcmitype/StillImage"/>
    <dc:date>2021-01-13T18:29:29.580749</dc:date>
    <dc:format>image/svg+xml</dc:format>
    <dc:creator>
     <cc:Agent>
      <dc:title>Matplotlib v3.3.3, https://matplotlib.org/</dc:title>
     </cc:Agent>
    </dc:creator>
   </cc:Work>
  </rdf:RDF>
 </metadata>
 <defs>
  <style type="text/css">*{stroke-linecap:butt;stroke-linejoin:round;}</style>
 </defs>
 <g id="figure_1">
  <g id="patch_1">
   <path d="M 0 576 
L 576 576 
L 576 0 
L 0 0 
z
" style="fill:#ffffff;"/>
  </g>
  <g id="axes_1">
   <g id="patch_2">
    <path d="M 518.4 288 
C 518.4 257.744149 512.440257 227.782498 500.861844 199.829737 
C 489.283431 171.876976 472.31152 146.476715 450.917402 125.082598 
C 429.523285 103.68848 404.123024 86.716569 376.170263 75.138156 
C 348.217502 63.559743 318.255851 57.6 288 57.6 
C 257.744149 57.6 227.782498 63.559743 199.829737 75.138156 
C 171.876976 86.716569 146.476715 103.68848 125.082598 125.082598 
C 103.68848 146.476715 86.716569 171.876976 75.138156 199.829737 
C 63.559743 227.782498 57.6 257.744149 57.6 288 
C 57.6 318.255851 63.559743 348.217502 75.138156 376.170263 
C 86.716569 404.123024 103.68848 429.523285 125.082598 450.917402 
C 146.476715 472.31152 171.876976 489.283431 199.829737 500.861844 
C 227.782498 512.440257 257.744149 518.4 288 518.4 
C 318.255851 518.4 348.217502 512.440257 376.170263 500.861844 
C 404.123024 489.283431 429.523285 472.31152 450.917402 450.917402 
C 472.31152 429.523285 489.283431 404.123024 500.861844 376.170263 
C 512.440257 348.217502 518.4 318.255851 518.4 288 
M 288 288 
C 288 288 288 288 288 288 
C 288 288 288 288 288 288 
C 288 288 288 288 288 288 
C 288 288 288 288 288 288 
C 288 288 288 288 288 288 
C 288 288 288 288 288 288 
C 288 288 288 288 288 288 
C 288 288 288 288 288 288 
C 288 288 288 288 288 288 
C 288 288 288 288 288 288 
C 288 288 288 288 288 288 
C 288 288 288 288 288 288 
C 288 288 288 288 288 288 
C 288 288 288 288 288 288 
C 288 288 288 288 288 288 
C 288 288 288 288 288 288 
M 518.4 288 
z
" style="fill:#ffffff;"/>
   </g>
   <g id="patch_3">
    <path clip-path="url(#p8b679138a2)" d="M 289.903653 275.980807 
C 289.274006 275.88108 288.637495 275.830986 288 275.830986 
C 287.362505 275.830986 286.725994 275.88108 286.096347 275.980807 
L 286.096347 275.980807 
C 286.725994 275.88108 287.362505 275.830986 288 275.830986 
C 288.637495 275.830986 289.274006 275.88108 289.903653 275.980807 
z
" style="fill:#fde725;stroke:#ffffff;stroke-linejoin:miter;"/>
   </g>
   <g id="patch_4">
    <path clip-path="url(#p8b679138a2)" d="M 298.173268 271.398736 
C 297.303581 270.865791 296.393359 270.402009 295.451008 270.011675 
C 294.508658 269.621341 293.53709 269.305659 292.54528 269.067547 
L 292.54528 269.067547 
C 293.53709 269.305659 294.508658 269.621341 295.451008 270.011675 
C 296.393359 270.402009 297.303581 270.865791 298.173268 271.398736 
z
" style="fill:#fde725;stroke:#ffffff;stroke-linejoin:miter;"/>
   </g>
   <g id="patch_5">
    <path clip-path="url(#p8b679138a2)" d="M 300.962503 278.58219 
C 300.469135 277.903126 299.923167 277.26388 299.329643 276.670357 
C 298.73612 276.076833 298.096874 275.530865 297.41781 275.037497 
L 297.41781 275.037497 
C 298.096874 275.530865 298.73612 276.076833 299.329643 276.670357 
C 299.923167 277.26388 300.469135 277.903126 300.962503 278.58219 
z
" style="fill:#fde725;stroke:#ffffff;stroke-linejoin:miter;"/>
   </g>
   <g id="patch_6">
    <path clip-path="url(#p8b679138a2)" d="M 298.255079 285.537973 
C 298.126101 285.000743 297.955107 284.474477 297.743676 283.964037 
C 297.532245 283.453597 297.28103 282.96056 296.992351 282.48948 
L 296.992351 282.48948 
C 297.28103 282.96056 297.532245 283.453597 297.743676 283.964037 
C 297.955107 284.474477 298.126101 285.000743 298.255079 285.537973 
z
" style="fill:#fde725;stroke:#ffffff;stroke-linejoin:miter;"/>
   </g>
   <g id="patch_7">
    <path clip-path="url(#p8b679138a2)" d="M 365.924437 300.342018 
C 366.570995 296.259808 366.895775 292.133095 366.895775 288 
C 366.895775 283.866905 366.570995 279.740192 365.924437 275.657982 
L 365.924437 275.657982 
C 366.570995 279.740192 366.895775 283.866905 366.895775 288 
C 366.895775 292.133095 366.570995 296.259808 365.924437 300.342018 
z
" style="fill:#fde725;stroke:#ffffff;stroke-linejoin:miter;"/>
   </g>
   <g id="patch_8">
    <path clip-path="url(#p8b679138a2)" d="M 298.54872 294.464264 
C 298.887362 293.91165 299.182057 293.33328 299.430081 292.734495 
C 299.678106 292.13571 299.878696 291.518359 300.029996 290.888147 
L 300.029996 290.888147 
C 299.878696 291.518359 299.678106 292.13571 299.430081 292.734495 
C 299.182057 293.33328 298.887362 293.91165 298.54872 294.464264 
z
" style="fill:#fde725;stroke:#ffffff;stroke-linejoin:miter;"/>
   </g>
   <g id="patch_9">
    <path clip-path="url(#p8b679138a2)" d="M 296.821746 300.142092 
C 297.457831 299.679949 298.056619 299.168536 298.612577 298.612577 
C 299.168536 298.056619 299.679949 297.457831 300.142092 296.821746 
L 300.142092 296.821746 
C 299.679949 297.457831 299.168536 298.056619 298.612577 298.612577 
C 298.056619 299.168536 297.457831 299.679949 296.821746 300.142092 
z
" style="fill:#fde725;stroke:#ffffff;stroke-linejoin:miter;"/>
   </g>
   <g id="patch_10">
    <path clip-path="url(#p8b679138a2)" d="M 291.12488 301.016062 
C 291.806749 300.852359 292.474702 300.635328 293.122568 300.366973 
C 293.770434 300.098619 294.396212 299.779769 294.994122 299.413369 
L 294.994122 299.413369 
C 294.396212 299.779769 293.770434 300.098619 293.122568 300.366973 
C 292.474702 300.635328 291.806749 300.852359 291.12488 301.016062 
z
" style="fill:#fde725;stroke:#ffffff;stroke-linejoin:miter;"/>
   </g>
   <g id="patch_11">
    <path clip-path="url(#p8b679138a2)" d="M 284.605152 309.434228 
C 285.728022 309.612073 286.863133 309.701408 288 309.701408 
C 289.136867 309.701408 290.271978 309.612073 291.394848 309.434228 
L 291.394848 309.434228 
C 290.271978 309.612073 289.136867 309.701408 288 309.701408 
C 286.863133 309.701408 285.728022 309.612073 284.605152 309.434228 
z
" style="fill:#fde725;stroke:#ffffff;stroke-linejoin:miter;"/>
   </g>
   <g id="patch_12">
    <path clip-path="url(#p8b679138a2)" d="M 271.044554 315.668774 
C 272.494032 316.557015 274.011069 317.329984 275.581653 317.980541 
C 277.152237 318.631099 278.771517 319.157234 280.424534 319.554089 
L 280.424534 319.554089 
C 278.771517 319.157234 277.152237 318.631099 275.581653 317.980541 
C 274.011069 317.329984 272.494032 316.557015 271.044554 315.668774 
z
" style="fill:#fde725;stroke:#ffffff;stroke-linejoin:miter;"/>
   </g>
   <g id="patch_13">
    <path clip-path="url(#p8b679138a2)" d="M 266.669298 303.497662 
C 267.481171 304.615109 268.379599 305.667033 269.356283 306.643717 
C 270.332967 307.620401 271.384891 308.518829 272.502338 309.330702 
L 272.502338 309.330702 
C 271.384891 308.518829 270.332967 307.620401 269.356283 306.643717 
C 268.379599 305.667033 267.481171 304.615109 266.669298 303.497662 
z
" style="fill:#fde725;stroke:#ffffff;stroke-linejoin:miter;"/>
   </g>
   <g id="patch_14">
    <path clip-path="url(#p8b679138a2)" d="M 268.870334 292.592627 
C 269.110927 293.594768 269.429896 294.576456 269.824297 295.528623 
C 270.218697 296.480789 270.68731 297.400493 271.225806 298.279239 
L 271.225806 298.279239 
C 270.68731 297.400493 270.218697 296.480789 269.824297 295.528623 
C 269.429896 294.576456 269.110927 293.594768 268.870334 292.592627 
z
" style="fill:#fde725;stroke:#ffffff;stroke-linejoin:miter;"/>
   </g>
   <g id="patch_15">
    <path clip-path="url(#p8b679138a2)" d="M 276.381446 286.159802 
C 276.285044 286.76846 276.23662 287.383754 276.23662 288 
C 276.23662 288.616246 276.285044 289.23154 276.381446 289.840198 
L 276.381446 289.840198 
C 276.285044 289.23154 276.23662 288.616246 276.23662 288 
C 276.23662 287.383754 276.285044 286.76846 276.381446 286.159802 
z
" style="fill:#fde725;stroke:#ffffff;stroke-linejoin:miter;"/>
   </g>
   <g id="patch_16">
    <path clip-path="url(#p8b679138a2)" d="M 276.067841 280.687964 
C 275.684787 281.313051 275.351444 281.967274 275.070891 282.644588 
C 274.790339 283.321902 274.563443 284.020216 274.392299 284.73308 
L 274.195086 284.685733 
C 274.36871 283.962538 274.598894 283.254104 274.883513 282.566973 
C 275.168132 281.879843 275.506306 281.216139 275.894911 280.581992 
z
" style="fill:#fde725;stroke:#ffffff;stroke-linejoin:miter;"/>
   </g>
   <g id="patch_17">
    <path clip-path="url(#p8b679138a2)" d="M 236.380865 216.952355 
C 232.658908 219.656516 229.155192 222.648972 225.902082 225.902082 
C 222.648972 229.155192 219.656516 232.658908 216.952355 236.380865 
L 216.788273 236.261652 
C 219.498678 232.531099 222.498046 229.019291 225.758668 225.758668 
C 229.019291 222.498046 232.531099 219.498678 236.261652 216.788273 
z
" style="fill:#fde725;stroke:#ffffff;stroke-linejoin:miter;"/>
   </g>
   <g id="patch_18">
    <path clip-path="url(#p8b679138a2)" d="M 234.214188 63.96597 
C 222.477767 66.783636 210.980883 70.5192 199.829737 75.138156 
C 188.678591 79.757112 177.907624 85.245194 167.616331 91.551706 
L 167.616331 91.551706 
C 177.907624 85.245194 188.678591 79.757112 199.829737 75.138156 
C 210.980883 70.5192 222.477767 66.783636 234.214188 63.96597 
z
" style="fill:#fde725;stroke:#ffffff;stroke-linejoin:miter;"/>
   </g>
   <g id="patch_19">
    <path clip-path="url(#p8b679138a2)" d="M 289.903653 275.980807 
C 289.274006 275.88108 288.637495 275.830986 288 275.830986 
C 287.362505 275.830986 286.725994 275.88108 286.096347 275.980807 
L 286.096347 275.980807 
C 286.725994 275.88108 287.362505 275.830986 288 275.830986 
C 288.637495 275.830986 289.274006 275.88108 289.903653 275.980807 
z
" style="fill:#7ad151;stroke:#ffffff;stroke-linejoin:miter;"/>
   </g>
   <g id="patch_20">
    <path clip-path="url(#p8b679138a2)" d="M 298.173268 271.398736 
C 297.303581 270.865791 296.393359 270.402009 295.451008 270.011675 
C 294.508658 269.621341 293.53709 269.305659 292.54528 269.067547 
L 292.54528 269.067547 
C 293.53709 269.305659 294.508658 269.621341 295.451008 270.011675 
C 296.393359 270.402009 297.303581 270.865791 298.173268 271.398736 
z
" style="fill:#7ad151;stroke:#ffffff;stroke-linejoin:miter;"/>
   </g>
   <g id="patch_21">
    <path clip-path="url(#p8b679138a2)" d="M 300.962503 278.58219 
C 300.469135 277.903126 299.923167 277.26388 299.329643 276.670357 
C 298.73612 276.076833 298.096874 275.530865 297.41781 275.037497 
L 297.41781 275.037497 
C 298.096874 275.530865 298.73612 276.076833 299.329643 276.670357 
C 299.923167 277.26388 300.469135 277.903126 300.962503 278.58219 
z
" style="fill:#7ad151;stroke:#ffffff;stroke-linejoin:miter;"/>
   </g>
   <g id="patch_22">
    <path clip-path="url(#p8b679138a2)" d="M 298.255079 285.537973 
C 298.126101 285.000743 297.955107 284.474477 297.743676 283.964037 
C 297.532245 283.453597 297.28103 282.96056 296.992351 282.48948 
L 296.992351 282.48948 
C 297.28103 282.96056 297.532245 283.453597 297.743676 283.964037 
C 297.955107 284.474477 298.126101 285.000743 298.255079 285.537973 
z
" style="fill:#7ad151;stroke:#ffffff;stroke-linejoin:miter;"/>
   </g>
   <g id="patch_23">
    <path clip-path="url(#p8b679138a2)" d="M 365.924437 300.342018 
C 366.570995 296.259808 366.895775 292.133095 366.895775 288 
C 366.895775 283.866905 366.570995 279.740192 365.924437 275.657982 
L 365.924437 275.657982 
C 366.570995 279.740192 366.895775 283.866905 366.895775 288 
C 366.895775 292.133095 366.570995 296.259808 365.924437 300.342018 
z
" style="fill:#7ad151;stroke:#ffffff;stroke-linejoin:miter;"/>
   </g>
   <g id="patch_24">
    <path clip-path="url(#p8b679138a2)" d="M 298.54872 294.464264 
C 298.887362 293.91165 299.182057 293.33328 299.430081 292.734495 
C 299.678106 292.13571 299.878696 291.518359 300.029996 290.888147 
L 300.029996 290.888147 
C 299.878696 291.518359 299.678106 292.13571 299.430081 292.734495 
C 299.182057 293.33328 298.887362 293.91165 298.54872 294.464264 
z
" style="fill:#7ad151;stroke:#ffffff;stroke-linejoin:miter;"/>
   </g>
   <g id="patch_25">
    <path clip-path="url(#p8b679138a2)" d="M 296.821746 300.142092 
C 297.457831 299.679949 298.056619 299.168536 298.612577 298.612577 
C 299.168536 298.056619 299.679949 297.457831 300.142092 296.821746 
L 300.142092 296.821746 
C 299.679949 297.457831 299.168536 298.056619 298.612577 298.612577 
C 298.056619 299.168536 297.457831 299.679949 296.821746 300.142092 
z
" style="fill:#7ad151;stroke:#ffffff;stroke-linejoin:miter;"/>
   </g>
   <g id="patch_26">
    <path clip-path="url(#p8b679138a2)" d="M 291.12488 301.016062 
C 291.806749 300.852359 292.474702 300.635328 293.122568 300.366973 
C 293.770434 300.098619 294.396212 299.779769 294.994122 299.413369 
L 294.994122 299.413369 
C 294.396212 299.779769 293.770434 300.098619 293.122568 300.366973 
C 292.474702 300.635328 291.806749 300.852359 291.12488 301.016062 
z
" style="fill:#7ad151;stroke:#ffffff;stroke-linejoin:miter;"/>
   </g>
   <g id="patch_27">
    <path clip-path="url(#p8b679138a2)" d="M 284.605152 309.434228 
C 285.728022 309.612073 286.863133 309.701408 288 309.701408 
C 289.136867 309.701408 290.271978 309.612073 291.394848 309.434228 
L 291.394848 309.434228 
C 290.271978 309.612073 289.136867 309.701408 288 309.701408 
C 286.863133 309.701408 285.728022 309.612073 284.605152 309.434228 
z
" style="fill:#7ad151;stroke:#ffffff;stroke-linejoin:miter;"/>
   </g>
   <g id="patch_28">
    <path clip-path="url(#p8b679138a2)" d="M 271.044554 315.668774 
C 272.494032 316.557015 274.011069 317.329984 275.581653 317.980541 
C 277.152237 318.631099 278.771517 319.157234 280.424534 319.554089 
L 280.424534 319.554089 
C 278.771517 319.157234 277.152237 318.631099 275.581653 317.980541 
C 274.011069 317.329984 272.494032 316.557015 271.044554 315.668774 
z
" style="fill:#7ad151;stroke:#ffffff;stroke-linejoin:miter;"/>
   </g>
   <g id="patch_29">
    <path clip-path="url(#p8b679138a2)" d="M 266.669298 303.497662 
C 267.481171 304.615109 268.379599 305.667033 269.356283 306.643717 
C 270.332967 307.620401 271.384891 308.518829 272.502338 309.330702 
L 272.502338 309.330702 
C 271.384891 308.518829 270.332967 307.620401 269.356283 306.643717 
C 268.379599 305.667033 267.481171 304.615109 266.669298 303.497662 
z
" style="fill:#7ad151;stroke:#ffffff;stroke-linejoin:miter;"/>
   </g>
   <g id="patch_30">
    <path clip-path="url(#p8b679138a2)" d="M 269.26476 292.497933 
C 269.500392 293.479412 269.812785 294.440859 270.199054 295.373393 
C 270.585322 296.305928 271.044272 297.206669 271.571666 298.067296 
L 271.225806 298.279239 
C 270.68731 297.400493 270.218697 296.480789 269.824297 295.528623 
C 269.429896 294.576456 269.110927 293.594768 268.870334 292.592627 
z
" style="fill:#7ad151;stroke:#ffffff;stroke-linejoin:miter;"/>
   </g>
   <g id="patch_31">
    <path clip-path="url(#p8b679138a2)" d="M 276.581766 286.191529 
C 276.487026 286.789694 276.439437 287.394379 276.439437 288 
C 276.439437 288.605621 276.487026 289.210306 276.581766 289.808471 
L 276.381446 289.840198 
C 276.285044 289.23154 276.23662 288.616246 276.23662 288 
C 276.23662 287.383754 276.285044 286.76846 276.381446 286.159802 
z
" style="fill:#7ad151;stroke:#ffffff;stroke-linejoin:miter;"/>
   </g>
   <g id="patch_32">
    <path clip-path="url(#p8b679138a2)" d="M 276.413701 280.899907 
C 276.04175 281.506876 275.718069 282.142135 275.445648 282.799817 
C 275.173227 283.457499 274.952908 284.135573 274.786725 284.827773 
L 274.392299 284.73308 
C 274.563443 284.020216 274.790339 283.321902 275.070891 282.644588 
C 275.351444 281.967274 275.684787 281.313051 276.067841 280.687964 
z
" style="fill:#7ad151;stroke:#ffffff;stroke-linejoin:miter;"/>
   </g>
   <g id="patch_33">
    <path clip-path="url(#p8b679138a2)" d="M 236.61929 217.28052 
C 232.914525 219.97219 229.426992 222.950824 226.188908 226.188908 
C 222.950824 229.426992 219.97219 232.914525 217.28052 236.61929 
L 216.952355 236.380865 
C 219.656516 232.658908 222.648972 229.155192 225.902082 225.902082 
C 229.155192 222.648972 232.658908 219.656516 236.380865 216.952355 
z
" style="fill:#7ad151;stroke:#ffffff;stroke-linejoin:miter;"/>
   </g>
   <g id="patch_34">
    <path clip-path="url(#p8b679138a2)" d="M 234.261535 64.163183 
C 222.535445 66.978368 211.048682 70.710644 199.907352 75.325534 
C 188.766022 79.940424 178.004536 85.423675 167.722302 91.724636 
L 167.616331 91.551706 
C 177.907624 85.245194 188.678591 79.757112 199.829737 75.138156 
C 210.980883 70.5192 222.477767 66.783636 234.214188 63.96597 
z
" style="fill:#7ad151;stroke:#ffffff;stroke-linejoin:miter;"/>
   </g>
   <g id="patch_35">
    <path clip-path="url(#p8b679138a2)" d="M 289.903653 275.980807 
C 289.274006 275.88108 288.637495 275.830986 288 275.830986 
C 287.362505 275.830986 286.725994 275.88108 286.096347 275.980807 
L 286.096347 275.980807 
C 286.725994 275.88108 287.362505 275.830986 288 275.830986 
C 288.637495 275.830986 289.274006 275.88108 289.903653 275.980807 
z
" style="fill:#22a884;stroke:#ffffff;stroke-linejoin:miter;"/>
   </g>
   <g id="patch_36">
    <path clip-path="url(#p8b679138a2)" d="M 298.173268 271.398736 
C 297.303581 270.865791 296.393359 270.402009 295.451008 270.011675 
C 294.508658 269.621341 293.53709 269.305659 292.54528 269.067547 
L 292.54528 269.067547 
C 293.53709 269.305659 294.508658 269.621341 295.451008 270.011675 
C 296.393359 270.402009 297.303581 270.865791 298.173268 271.398736 
z
" style="fill:#22a884;stroke:#ffffff;stroke-linejoin:miter;"/>
   </g>
   <g id="patch_37">
    <path clip-path="url(#p8b679138a2)" d="M 300.962503 278.58219 
C 300.469135 277.903126 299.923167 277.26388 299.329643 276.670357 
C 298.73612 276.076833 298.096874 275.530865 297.41781 275.037497 
L 297.41781 275.037497 
C 298.096874 275.530865 298.73612 276.076833 299.329643 276.670357 
C 299.923167 277.26388 300.469135 277.903126 300.962503 278.58219 
z
" style="fill:#22a884;stroke:#ffffff;stroke-linejoin:miter;"/>
   </g>
   <g id="patch_38">
    <path clip-path="url(#p8b679138a2)" d="M 298.255079 285.537973 
C 298.126101 285.000743 297.955107 284.474477 297.743676 283.964037 
C 297.532245 283.453597 297.28103 282.96056 296.992351 282.48948 
L 296.992351 282.48948 
C 297.28103 282.96056 297.532245 283.453597 297.743676 283.964037 
C 297.955107 284.474477 298.126101 285.000743 298.255079 285.537973 
z
" style="fill:#22a884;stroke:#ffffff;stroke-linejoin:miter;"/>
   </g>
   <g id="patch_39">
    <path clip-path="url(#p8b679138a2)" d="M 365.724117 300.310291 
C 366.369013 296.238575 366.692958 292.122471 366.692958 288 
C 366.692958 283.877529 366.369013 279.761425 365.724117 275.689709 
L 365.924437 275.657982 
C 366.570995 279.740192 366.895775 283.866905 366.895775 288 
C 366.895775 292.133095 366.570995 296.259808 365.924437 300.342018 
z
" style="fill:#22a884;stroke:#ffffff;stroke-linejoin:miter;"/>
   </g>
   <g id="patch_40">
    <path clip-path="url(#p8b679138a2)" d="M 298.37579 294.358292 
C 298.708881 293.814738 298.998744 293.245849 299.242703 292.65688 
C 299.486662 292.067911 299.683963 291.460681 299.832783 290.8408 
L 300.029996 290.888147 
C 299.878696 291.518359 299.678106 292.13571 299.430081 292.734495 
C 299.182057 293.33328 298.887362 293.91165 298.54872 294.464264 
z
" style="fill:#22a884;stroke:#ffffff;stroke-linejoin:miter;"/>
   </g>
   <g id="patch_41">
    <path clip-path="url(#p8b679138a2)" d="M 296.821746 300.142092 
C 297.457831 299.679949 298.056619 299.168536 298.612577 298.612577 
C 299.168536 298.056619 299.679949 297.457831 300.142092 296.821746 
L 300.142092 296.821746 
C 299.679949 297.457831 299.168536 298.056619 298.612577 298.612577 
C 298.056619 299.168536 297.457831 299.679949 296.821746 300.142092 
z
" style="fill:#22a884;stroke:#ffffff;stroke-linejoin:miter;"/>
   </g>
   <g id="patch_42">
    <path clip-path="url(#p8b679138a2)" d="M 291.12488 301.016062 
C 291.806749 300.852359 292.474702 300.635328 293.122568 300.366973 
C 293.770434 300.098619 294.396212 299.779769 294.994122 299.413369 
L 294.994122 299.413369 
C 294.396212 299.779769 293.770434 300.098619 293.122568 300.366973 
C 292.474702 300.635328 291.806749 300.852359 291.12488 301.016062 
z
" style="fill:#22a884;stroke:#ffffff;stroke-linejoin:miter;"/>
   </g>
   <g id="patch_43">
    <path clip-path="url(#p8b679138a2)" d="M 284.700334 308.833268 
C 285.791722 309.006127 286.895008 309.092958 288 309.092958 
C 289.104992 309.092958 290.208278 309.006127 291.299666 308.833268 
L 291.394848 309.434228 
C 290.271978 309.612073 289.136867 309.701408 288 309.701408 
C 286.863133 309.701408 285.728022 309.612073 284.605152 309.434228 
z
" style="fill:#22a884;stroke:#ffffff;stroke-linejoin:miter;"/>
   </g>
   <g id="patch_44">
    <path clip-path="url(#p8b679138a2)" d="M 271.574411 314.804125 
C 272.978593 315.664608 274.448223 316.413422 275.969726 317.04365 
C 277.49123 317.673877 279.059907 318.183571 280.661267 318.568023 
L 280.424534 319.554089 
C 278.771517 319.157234 277.152237 318.631099 275.581653 317.980541 
C 274.011069 317.329984 272.494032 316.557015 271.044554 315.668774 
z
" style="fill:#22a884;stroke:#ffffff;stroke-linejoin:miter;"/>
   </g>
   <g id="patch_45">
    <path clip-path="url(#p8b679138a2)" d="M 267.161545 303.140024 
C 267.954682 304.231683 268.832377 305.259332 269.786523 306.213477 
C 270.740668 307.167623 271.768317 308.045318 272.859976 308.838455 
L 272.502338 309.330702 
C 271.384891 308.518829 270.332967 307.620401 269.356283 306.643717 
C 268.379599 305.667033 267.481171 304.615109 266.669298 303.497662 
z
" style="fill:#22a884;stroke:#ffffff;stroke-linejoin:miter;"/>
   </g>
   <g id="patch_46">
    <path clip-path="url(#p8b679138a2)" d="M 270.250825 292.2612 
C 270.474056 293.191022 270.770007 294.101867 271.135945 294.98532 
C 271.501884 295.868774 271.936679 296.722107 272.436315 297.537439 
L 271.571666 298.067296 
C 271.044272 297.206669 270.585322 296.305928 270.199054 295.373393 
C 269.812785 294.440859 269.500392 293.479412 269.26476 292.497933 
z
" style="fill:#22a884;stroke:#ffffff;stroke-linejoin:miter;"/>
   </g>
   <g id="patch_47">
    <path clip-path="url(#p8b679138a2)" d="M 277.182726 286.286712 
C 277.092972 286.853394 277.047887 287.426254 277.047887 288 
C 277.047887 288.573746 277.092972 289.146606 277.182726 289.713288 
L 276.581766 289.808471 
C 276.487026 289.210306 276.439437 288.605621 276.439437 288 
C 276.439437 287.394379 276.487026 286.789694 276.581766 286.191529 
z
" style="fill:#22a884;stroke:#ffffff;stroke-linejoin:miter;"/>
   </g>
   <g id="patch_48">
    <path clip-path="url(#p8b679138a2)" d="M 277.27835 281.429765 
C 276.934157 281.991437 276.634631 282.579289 276.38254 283.187891 
C 276.130449 283.796492 275.926572 284.423963 275.772791 285.064507 
L 274.786725 284.827773 
C 274.952908 284.135573 275.173227 283.457499 275.445648 282.799817 
C 275.718069 282.142135 276.04175 281.506876 276.413701 280.899907 
z
" style="fill:#22a884;stroke:#ffffff;stroke-linejoin:miter;"/>
   </g>
   <g id="patch_49">
    <path clip-path="url(#p8b679138a2)" d="M 238.645908 220.06992 
C 235.08727 222.655421 231.737296 225.516569 228.626933 228.626933 
C 225.516569 231.737296 222.655421 235.08727 220.06992 238.645908 
L 217.28052 236.61929 
C 219.97219 232.914525 222.950824 229.426992 226.188908 226.188908 
C 229.426992 222.950824 232.914525 219.97219 236.61929 217.28052 
z
" style="fill:#22a884;stroke:#ffffff;stroke-linejoin:miter;"/>
   </g>
   <g id="patch_50">
    <path clip-path="url(#p8b679138a2)" d="M 235.918668 71.06564 
C 224.554176 73.794013 213.42163 77.411197 202.623865 81.883778 
C 191.8261 86.356358 181.396467 91.670522 171.431306 97.77718 
L 167.722302 91.724636 
C 178.004536 85.423675 188.766022 79.940424 199.907352 75.325534 
C 211.048682 70.710644 222.535445 66.978368 234.261535 64.163183 
z
" style="fill:#22a884;stroke:#ffffff;stroke-linejoin:miter;"/>
   </g>
   <g id="patch_51">
    <path clip-path="url(#p8b679138a2)" d="M 289.871926 276.181127 
C 289.252773 276.083062 288.626871 276.033803 288 276.033803 
C 287.373129 276.033803 286.747227 276.083062 286.128074 276.181127 
L 286.096347 275.980807 
C 286.725994 275.88108 287.362505 275.830986 288 275.830986 
C 288.637495 275.830986 289.274006 275.88108 289.903653 275.980807 
z
" style="fill:#2a788e;stroke:#ffffff;stroke-linejoin:miter;"/>
   </g>
   <g id="patch_52">
    <path clip-path="url(#p8b679138a2)" d="M 297.961325 271.744595 
C 297.109756 271.222754 296.218497 270.768634 295.295779 270.386432 
C 294.373061 270.00423 293.421734 269.695125 292.450587 269.461973 
L 292.54528 269.067547 
C 293.53709 269.305659 294.508658 269.621341 295.451008 270.011675 
C 296.393359 270.402009 297.303581 270.865791 298.173268 271.398736 
z
" style="fill:#2a788e;stroke:#ffffff;stroke-linejoin:miter;"/>
   </g>
   <g id="patch_53">
    <path clip-path="url(#p8b679138a2)" d="M 300.962503 278.58219 
C 300.469135 277.903126 299.923167 277.26388 299.329643 276.670357 
C 298.73612 276.076833 298.096874 275.530865 297.41781 275.037497 
L 297.41781 275.037497 
C 298.096874 275.530865 298.73612 276.076833 299.329643 276.670357 
C 299.923167 277.26388 300.469135 277.903126 300.962503 278.58219 
z
" style="fill:#2a788e;stroke:#ffffff;stroke-linejoin:miter;"/>
   </g>
   <g id="patch_54">
    <path clip-path="url(#p8b679138a2)" d="M 298.255079 285.537973 
C 298.126101 285.000743 297.955107 284.474477 297.743676 283.964037 
C 297.532245 283.453597 297.28103 282.96056 296.992351 282.48948 
L 296.992351 282.48948 
C 297.28103 282.96056 297.532245 283.453597 297.743676 283.964037 
C 297.955107 284.474477 298.126101 285.000743 298.255079 285.537973 
z
" style="fill:#2a788e;stroke:#ffffff;stroke-linejoin:miter;"/>
   </g>
   <g id="patch_55">
    <path clip-path="url(#p8b679138a2)" d="M 354.906843 298.597003 
C 355.461986 295.091969 355.740845 291.548725 355.740845 288 
C 355.740845 284.451275 355.461986 280.908031 354.906843 277.402997 
L 365.724117 275.689709 
C 366.369013 279.761425 366.692958 283.877529 366.692958 288 
C 366.692958 292.122471 366.369013 296.238575 365.724117 300.310291 
z
" style="fill:#2a788e;stroke:#ffffff;stroke-linejoin:miter;"/>
   </g>
   <g id="patch_56">
    <path clip-path="url(#p8b679138a2)" d="M 298.37579 294.358292 
C 298.708881 293.814738 298.998744 293.245849 299.242703 292.65688 
C 299.486662 292.067911 299.683963 291.460681 299.832783 290.8408 
L 299.832783 290.8408 
C 299.683963 291.460681 299.486662 292.067911 299.242703 292.65688 
C 298.998744 293.245849 298.708881 293.814738 298.37579 294.358292 
z
" style="fill:#2a788e;stroke:#ffffff;stroke-linejoin:miter;"/>
   </g>
   <g id="patch_57">
    <path clip-path="url(#p8b679138a2)" d="M 296.702533 299.978009 
C 297.330023 299.522112 297.920718 299.01761 298.469164 298.469164 
C 299.01761 297.920718 299.522112 297.330023 299.978009 296.702533 
L 300.142092 296.821746 
C 299.679949 297.457831 299.168536 298.056619 298.612577 298.612577 
C 298.056619 299.168536 297.457831 299.679949 296.821746 300.142092 
z
" style="fill:#2a788e;stroke:#ffffff;stroke-linejoin:miter;"/>
   </g>
   <g id="patch_58">
    <path clip-path="url(#p8b679138a2)" d="M 290.793453 299.63557 
C 291.403003 299.48923 292.000113 299.295218 292.579265 299.055325 
C 293.158418 298.815432 293.717826 298.530399 294.252321 298.20286 
L 294.994122 299.413369 
C 294.396212 299.779769 293.770434 300.098619 293.122568 300.366973 
C 292.474702 300.635328 291.806749 300.852359 291.12488 301.016062 
z
" style="fill:#2a788e;stroke:#ffffff;stroke-linejoin:miter;"/>
   </g>
   <g id="patch_59">
    <path clip-path="url(#p8b679138a2)" d="M 285.27143 305.22751 
C 286.173924 305.370451 287.086257 305.442254 288 305.442254 
C 288.913743 305.442254 289.826076 305.370451 290.72857 305.22751 
L 291.299666 308.833268 
C 290.208278 309.006127 289.104992 309.092958 288 309.092958 
C 286.895008 309.092958 285.791722 309.006127 284.700334 308.833268 
z
" style="fill:#2a788e;stroke:#ffffff;stroke-linejoin:miter;"/>
   </g>
   <g id="patch_60">
    <path clip-path="url(#p8b679138a2)" d="M 274.117728 310.653809 
C 275.304488 311.381056 276.546563 312.013925 277.832478 312.546568 
C 279.118394 313.079212 280.444179 313.509986 281.797587 313.83491 
L 280.661267 318.568023 
C 279.059907 318.183571 277.49123 317.673877 275.969726 317.04365 
C 274.448223 316.413422 272.978593 315.664608 271.574411 314.804125 
z
" style="fill:#2a788e;stroke:#ffffff;stroke-linejoin:miter;"/>
   </g>
   <g id="patch_61">
    <path clip-path="url(#p8b679138a2)" d="M 271.75585 299.802066 
C 272.374123 300.653044 273.05831 301.454125 273.802093 302.197907 
C 274.545875 302.94169 275.346956 303.625877 276.197934 304.24415 
L 272.859976 308.838455 
C 271.768317 308.045318 270.740668 307.167623 269.786523 306.213477 
C 268.832377 305.259332 267.954682 304.231683 267.161545 303.140024 
z
" style="fill:#2a788e;stroke:#ffffff;stroke-linejoin:miter;"/>
   </g>
   <g id="patch_62">
    <path clip-path="url(#p8b679138a2)" d="M 273.209021 291.551 
C 273.395046 292.325852 273.641673 293.084889 273.946621 293.8211 
C 274.25157 294.557311 274.613899 295.268423 275.030262 295.947865 
L 272.436315 297.537439 
C 271.936679 296.722107 271.501884 295.868774 271.135945 294.98532 
C 270.770007 294.101867 270.474056 293.191022 270.250825 292.2612 
z
" style="fill:#2a788e;stroke:#ffffff;stroke-linejoin:miter;"/>
   </g>
   <g id="patch_63">
    <path clip-path="url(#p8b679138a2)" d="M 278.985605 286.57226 
C 278.91081 287.044495 278.873239 287.521878 278.873239 288 
C 278.873239 288.478122 278.91081 288.955505 278.985605 289.42774 
L 277.182726 289.713288 
C 277.092972 289.146606 277.047887 288.573746 277.047887 288 
C 277.047887 287.426254 277.092972 286.853394 277.182726 286.286712 
z
" style="fill:#2a788e;stroke:#ffffff;stroke-linejoin:miter;"/>
   </g>
   <g id="patch_64">
    <path clip-path="url(#p8b679138a2)" d="M 280.564017 283.443224 
C 280.325302 283.832771 280.117567 284.240475 279.942729 284.662569 
C 279.767892 285.084664 279.626493 285.519845 279.519839 285.964093 
L 275.772791 285.064507 
C 275.926572 284.423963 276.130449 283.796492 276.38254 283.187891 
C 276.634631 282.579289 276.934157 281.991437 277.27835 281.429765 
z
" style="fill:#2a788e;stroke:#ffffff;stroke-linejoin:miter;"/>
   </g>
   <g id="patch_65">
    <path clip-path="url(#p8b679138a2)" d="M 252.116952 238.611222 
C 249.529633 240.491019 247.094025 242.571225 244.832625 244.832625 
C 242.571225 247.094025 240.491019 249.529633 238.611222 252.116952 
L 220.06992 238.645908 
C 222.655421 235.08727 225.516569 231.737296 228.626933 228.626933 
C 231.737296 225.516569 235.08727 222.655421 238.645908 220.06992 
z
" style="fill:#2a788e;stroke:#ffffff;stroke-linejoin:miter;"/>
   </g>
   <g id="patch_66">
    <path clip-path="url(#p8b679138a2)" d="M 245.530041 111.09989 
C 236.262814 113.324755 227.184729 116.274403 218.379643 119.921589 
C 209.574556 123.568776 201.069664 127.902235 192.943529 132.881937 
L 171.431306 97.77718 
C 181.396467 91.670522 191.8261 86.356358 202.623865 81.883778 
C 213.42163 77.411197 224.554176 73.794013 235.918668 71.06564 
z
" style="fill:#2a788e;stroke:#ffffff;stroke-linejoin:miter;"/>
   </g>
   <g id="patch_67">
    <path clip-path="url(#p8b679138a2)" d="M 289.459467 278.785285 
C 288.976738 278.708828 288.488747 278.670423 288 278.670423 
C 287.511253 278.670423 287.023262 278.708828 286.540533 278.785285 
L 286.128074 276.181127 
C 286.747227 276.083062 287.373129 276.033803 288 276.033803 
C 288.626871 276.033803 289.252773 276.083062 289.871926 276.181127 
z
" style="fill:#414487;stroke:#ffffff;stroke-linejoin:miter;"/>
   </g>
   <g id="patch_68">
    <path clip-path="url(#p8b679138a2)" d="M 294.570235 277.27835 
C 294.008563 276.934157 293.420711 276.634631 292.812109 276.38254 
C 292.203508 276.130449 291.576037 275.926572 290.935493 275.772791 
L 292.450587 269.461973 
C 293.421734 269.695125 294.373061 270.00423 295.295779 270.386432 
C 296.218497 270.768634 297.109756 271.222754 297.961325 271.744595 
z
" style="fill:#414487;stroke:#ffffff;stroke-linejoin:miter;"/>
   </g>
   <g id="patch_69">
    <path clip-path="url(#p8b679138a2)" d="M 298.337186 280.489595 
C 297.94374 279.948063 297.508348 279.438284 297.035032 278.964968 
C 296.561716 278.491652 296.051937 278.05626 295.510405 277.662814 
L 297.41781 275.037497 
C 298.096874 275.530865 298.73612 276.076833 299.329643 276.670357 
C 299.923167 277.26388 300.469135 277.903126 300.962503 278.58219 
z
" style="fill:#414487;stroke:#ffffff;stroke-linejoin:miter;"/>
   </g>
   <g id="patch_70">
    <path clip-path="url(#p8b679138a2)" d="M 297.466227 285.72736 
C 297.34717 285.231455 297.18933 284.745671 296.994162 284.274496 
C 296.798995 283.803321 296.567104 283.348209 296.300632 282.913366 
L 296.992351 282.48948 
C 297.28103 282.96056 297.532245 283.453597 297.743676 283.964037 
C 297.955107 284.474477 298.126101 285.000743 298.255079 285.537973 
z
" style="fill:#414487;stroke:#ffffff;stroke-linejoin:miter;"/>
   </g>
   <g id="patch_71">
    <path clip-path="url(#p8b679138a2)" d="M 316.846064 292.568768 
C 317.085407 291.057615 317.205634 289.529989 317.205634 288 
C 317.205634 286.470011 317.085407 284.942385 316.846064 283.431232 
L 354.906843 277.402997 
C 355.461986 280.908031 355.740845 284.451275 355.740845 288 
C 355.740845 291.548725 355.461986 295.091969 354.906843 298.597003 
z
" style="fill:#414487;stroke:#ffffff;stroke-linejoin:miter;"/>
   </g>
   <g id="patch_72">
    <path clip-path="url(#p8b679138a2)" d="M 295.090123 292.344833 
C 295.317735 291.973404 295.515808 291.584664 295.682514 291.182201 
C 295.849219 290.779739 295.984041 290.364799 296.085735 289.941213 
L 299.832783 290.8408 
C 299.683963 291.460681 299.486662 292.067911 299.242703 292.65688 
C 298.998744 293.245849 298.708881 293.814738 298.37579 294.358292 
z
" style="fill:#414487;stroke:#ffffff;stroke-linejoin:miter;"/>
   </g>
   <g id="patch_73">
    <path clip-path="url(#p8b679138a2)" d="M 293.722214 295.875951 
C 294.134809 295.576183 294.523212 295.244456 294.883834 294.883834 
C 295.244456 294.523212 295.576183 294.134809 295.875951 293.722214 
L 299.978009 296.702533 
C 299.522112 297.330023 299.01761 297.920718 298.469164 298.469164 
C 297.920718 299.01761 297.330023 299.522112 296.702533 299.978009 
z
" style="fill:#414487;stroke:#ffffff;stroke-linejoin:miter;"/>
   </g>
   <g id="patch_74">
    <path clip-path="url(#p8b679138a2)" d="M 289.751827 295.296883 
C 290.134087 295.20511 290.508545 295.083442 290.871743 294.933 
C 291.23494 294.782559 291.585755 294.60381 291.920947 294.398404 
L 294.252321 298.20286 
C 293.717826 298.530399 293.158418 298.815432 292.579265 299.055325 
C 292.000113 299.295218 291.403003 299.48923 290.793453 299.63557 
z
" style="fill:#414487;stroke:#ffffff;stroke-linejoin:miter;"/>
   </g>
   <g id="patch_75">
    <path clip-path="url(#p8b679138a2)" d="M 286.889536 295.011196 
C 287.25683 295.06937 287.628128 295.098592 288 295.098592 
C 288.371872 295.098592 288.74317 295.06937 289.110464 295.011196 
L 290.72857 305.22751 
C 289.826076 305.370451 288.913743 305.442254 288 305.442254 
C 287.086257 305.442254 286.173924 305.370451 285.27143 305.22751 
z
" style="fill:#414487;stroke:#ffffff;stroke-linejoin:miter;"/>
   </g>
   <g id="patch_76">
    <path clip-path="url(#p8b679138a2)" d="M 283.86711 294.744264 
C 284.22042 294.960772 284.590198 295.149184 284.973028 295.307757 
C 285.355858 295.46633 285.750557 295.594576 286.15348 295.691309 
L 281.797587 313.83491 
C 280.444179 313.509986 279.118394 313.079212 277.832478 312.546568 
C 276.546563 312.013925 275.304488 311.381056 274.117728 310.653809 
z
" style="fill:#414487;stroke:#ffffff;stroke-linejoin:miter;"/>
   </g>
   <g id="patch_77">
    <path clip-path="url(#p8b679138a2)" d="M 282.257119 292.172447 
C 282.4757 292.473298 282.717584 292.756509 282.980538 293.019462 
C 283.243491 293.282416 283.526702 293.5243 283.827553 293.742881 
L 276.197934 304.24415 
C 275.346956 303.625877 274.545875 302.94169 273.802093 302.197907 
C 273.05831 301.454125 272.374123 300.653044 271.75585 299.802066 
z
" style="fill:#414487;stroke:#ffffff;stroke-linejoin:miter;"/>
   </g>
   <g id="patch_78">
    <path clip-path="url(#p8b679138a2)" d="M 279.717052 289.98856 
C 279.821226 290.422477 279.959337 290.847538 280.130108 291.259816 
C 280.300879 291.672094 280.503784 292.070317 280.736947 292.450805 
L 275.030262 295.947865 
C 274.613899 295.268423 274.25157 294.557311 273.946621 293.8211 
C 273.641673 293.084889 273.395046 292.325852 273.209021 291.551 
z
" style="fill:#414487;stroke:#ffffff;stroke-linejoin:miter;"/>
   </g>
   <g id="patch_79">
    <path clip-path="url(#p8b679138a2)" d="M 282.992003 287.206811 
C 282.95045 287.469164 282.929577 287.734377 282.929577 288 
C 282.929577 288.265623 282.95045 288.530836 282.992003 288.793189 
L 278.985605 289.42774 
C 278.91081 288.955505 278.873239 288.478122 278.873239 288 
C 278.873239 287.521878 278.91081 287.044495 278.985605 286.57226 
z
" style="fill:#414487;stroke:#ffffff;stroke-linejoin:miter;"/>
   </g>
   <g id="patch_80">
    <path clip-path="url(#p8b679138a2)" d="M 283.330894 285.138768 
C 283.181004 285.383368 283.050565 285.639368 282.940784 285.904404 
C 282.831002 286.16944 282.742217 286.442693 282.675248 286.72164 
L 279.519839 285.964093 
C 279.626493 285.519845 279.767892 285.084664 279.942729 284.662569 
C 280.117567 284.240475 280.325302 283.832771 280.564017 283.443224 
z
" style="fill:#414487;stroke:#ffffff;stroke-linejoin:miter;"/>
   </g>
   <g id="patch_81">
    <path clip-path="url(#p8b679138a2)" d="M 277.628488 273.724838 
C 276.880658 274.268168 276.176678 274.869424 275.523051 275.523051 
C 274.869424 276.176678 274.268168 276.880658 273.724838 277.628488 
L 238.611222 252.116952 
C 240.491019 249.529633 242.571225 247.094025 244.832625 244.832625 
C 247.094025 242.571225 249.529633 240.491019 252.116952 238.611222 
z
" style="fill:#414487;stroke:#ffffff;stroke-linejoin:miter;"/>
   </g>
   <g id="patch_82">
    <path clip-path="url(#p8b679138a2)" d="M 278.104547 246.782472 
C 275.945293 247.300863 273.83011 247.988127 271.778534 248.837918 
C 269.726959 249.687708 267.745329 250.697399 265.851948 251.857664 
L 192.943529 132.881937 
C 201.069664 127.902235 209.574556 123.568776 218.379643 119.921589 
C 227.184729 116.274403 236.262814 113.324755 245.530041 111.09989 
z
" style="fill:#414487;stroke:#ffffff;stroke-linejoin:miter;"/>
   </g>
   <g id="patch_83">
    <path clip-path="url(#p8b679138a2)" d="M 288 288 
C 288 288 288 288 288 288 
C 288 288 288 288 288 288 
L 286.540533 278.785285 
C 287.023262 278.708828 287.511253 278.670423 288 278.670423 
C 288.488747 278.670423 288.976738 278.708828 289.459467 278.785285 
z
" style="fill:#440154;stroke:#ffffff;stroke-linejoin:miter;"/>
   </g>
   <g id="patch_84">
    <path clip-path="url(#p8b679138a2)" d="M 288 288 
C 288 288 288 288 288 288 
C 288 288 288 288 288 288 
L 290.935493 275.772791 
C 291.576037 275.926572 292.203508 276.130449 292.812109 276.38254 
C 293.420711 276.634631 294.008563 276.934157 294.570235 277.27835 
z
" style="fill:#440154;stroke:#ffffff;stroke-linejoin:miter;"/>
   </g>
   <g id="patch_85">
    <path clip-path="url(#p8b679138a2)" d="M 288 288 
C 288 288 288 288 288 288 
C 288 288 288 288 288 288 
L 295.510405 277.662814 
C 296.051937 278.05626 296.561716 278.491652 297.035032 278.964968 
C 297.508348 279.438284 297.94374 279.948063 298.337186 280.489595 
z
" style="fill:#440154;stroke:#ffffff;stroke-linejoin:miter;"/>
   </g>
   <g id="patch_86">
    <path clip-path="url(#p8b679138a2)" d="M 288 288 
C 288 288 288 288 288 288 
C 288 288 288 288 288 288 
L 296.300632 282.913366 
C 296.567104 283.348209 296.798995 283.803321 296.994162 284.274496 
C 297.18933 284.745671 297.34717 285.231455 297.466227 285.72736 
z
" style="fill:#440154;stroke:#ffffff;stroke-linejoin:miter;"/>
   </g>
   <g id="patch_87">
    <path clip-path="url(#p8b679138a2)" d="M 288 288 
C 288 288 288 288 288 288 
C 288 288 288 288 288 288 
L 316.846064 283.431232 
C 317.085407 284.942385 317.205634 286.470011 317.205634 288 
C 317.205634 289.529989 317.085407 291.057615 316.846064 292.568768 
z
" style="fill:#440154;stroke:#ffffff;stroke-linejoin:miter;"/>
   </g>
   <g id="patch_88">
    <path clip-path="url(#p8b679138a2)" d="M 288 288 
C 288 288 288 288 288 288 
C 288 288 288 288 288 288 
L 296.085735 289.941213 
C 295.984041 290.364799 295.849219 290.779739 295.682514 291.182201 
C 295.515808 291.584664 295.317735 291.973404 295.090123 292.344833 
z
" style="fill:#440154;stroke:#ffffff;stroke-linejoin:miter;"/>
   </g>
   <g id="patch_89">
    <path clip-path="url(#p8b679138a2)" d="M 288 288 
C 288 288 288 288 288 288 
C 288 288 288 288 288 288 
L 295.875951 293.722214 
C 295.576183 294.134809 295.244456 294.523212 294.883834 294.883834 
C 294.523212 295.244456 294.134809 295.576183 293.722214 295.875951 
z
" style="fill:#440154;stroke:#ffffff;stroke-linejoin:miter;"/>
   </g>
   <g id="patch_90">
    <path clip-path="url(#p8b679138a2)" d="M 288 288 
C 288 288 288 288 288 288 
C 288 288 288 288 288 288 
L 291.920947 294.398404 
C 291.585755 294.60381 291.23494 294.782559 290.871743 294.933 
C 290.508545 295.083442 290.134087 295.20511 289.751827 295.296883 
z
" style="fill:#440154;stroke:#ffffff;stroke-linejoin:miter;"/>
   </g>
   <g id="patch_91">
    <path clip-path="url(#p8b679138a2)" d="M 288 288 
C 288 288 288 288 288 288 
C 288 288 288 288 288 288 
L 289.110464 295.011196 
C 288.74317 295.06937 288.371872 295.098592 288 295.098592 
C 287.628128 295.098592 287.25683 295.06937 286.889536 295.011196 
z
" style="fill:#440154;stroke:#ffffff;stroke-linejoin:miter;"/>
   </g>
   <g id="patch_92">
    <path clip-path="url(#p8b679138a2)" d="M 288 288 
C 288 288 288 288 288 288 
C 288 288 288 288 288 288 
L 286.15348 295.691309 
C 285.750557 295.594576 285.355858 295.46633 284.973028 295.307757 
C 284.590198 295.149184 284.22042 294.960772 283.86711 294.744264 
z
" style="fill:#440154;stroke:#ffffff;stroke-linejoin:miter;"/>
   </g>
   <g id="patch_93">
    <path clip-path="url(#p8b679138a2)" d="M 288 288 
C 288 288 288 288 288 288 
C 288 288 288 288 288 288 
L 283.827553 293.742881 
C 283.526702 293.5243 283.243491 293.282416 282.980538 293.019462 
C 282.717584 292.756509 282.4757 292.473298 282.257119 292.172447 
z
" style="fill:#440154;stroke:#ffffff;stroke-linejoin:miter;"/>
   </g>
   <g id="patch_94">
    <path clip-path="url(#p8b679138a2)" d="M 288 288 
C 288 288 288 288 288 288 
C 288 288 288 288 288 288 
L 280.736947 292.450805 
C 280.503784 292.070317 280.300879 291.672094 280.130108 291.259816 
C 279.959337 290.847538 279.821226 290.422477 279.717052 289.98856 
z
" style="fill:#440154;stroke:#ffffff;stroke-linejoin:miter;"/>
   </g>
   <g id="patch_95">
    <path clip-path="url(#p8b679138a2)" d="M 288 288 
C 288 288 288 288 288 288 
C 288 288 288 288 288 288 
L 282.992003 288.793189 
C 282.95045 288.530836 282.929577 288.265623 282.929577 288 
C 282.929577 287.734377 282.95045 287.469164 282.992003 287.206811 
z
" style="fill:#440154;stroke:#ffffff;stroke-linejoin:miter;"/>
   </g>
   <g id="patch_96">
    <path clip-path="url(#p8b679138a2)" d="M 288 288 
C 288 288 288 288 288 288 
C 288 288 288 288 288 288 
L 282.675248 286.72164 
C 282.742217 286.442693 282.831002 286.16944 282.940784 285.904404 
C 283.050565 285.639368 283.181004 285.383368 283.330894 285.138768 
z
" style="fill:#440154;stroke:#ffffff;stroke-linejoin:miter;"/>
   </g>
   <g id="patch_97">
    <path clip-path="url(#p8b679138a2)" d="M 288 288 
C 288 288 288 288 288 288 
C 288 288 288 288 288 288 
L 273.724838 277.628488 
C 274.268168 276.880658 274.869424 276.176678 275.523051 275.523051 
C 276.176678 274.869424 276.880658 274.268168 277.628488 273.724838 
z
" style="fill:#440154;stroke:#ffffff;stroke-linejoin:miter;"/>
   </g>
   <g id="patch_98">
    <path clip-path="url(#p8b679138a2)" d="M 288 288 
C 288 288 288 288 288 288 
C 288 288 288 288 288 288 
L 265.851948 251.857664 
C 267.745329 250.697399 269.726959 249.687708 271.778534 248.837918 
C 273.83011 247.988127 275.945293 247.300863 278.104547 246.782472 
z
" style="fill:#440154;stroke:#ffffff;stroke-linejoin:miter;"/>
   </g>
   <g id="matplotlib.axis_1">
    <g id="xtick_1">
     <g id="line2d_1">
      <path clip-path="url(#p8b679138a2)" d="M 288 288 
L 518.4 288 
" style="fill:none;stroke:#b0b0b0;stroke-linecap:square;stroke-width:0.8;"/>
     </g>
     <g id="text_1">
      <!-- 0° -->
      <g transform="translate(525.987344 291.572187)scale(0.14 -0.14)">
       <defs>
        <path d="M 49.8125 35.296875 
Q 49.8125 26.515625 48.21875 19.71875 
Q 46.625 12.9375 43.625 8.265625 
Q 40.625 3.609375 36.25 1.1875 
Q 31.890625 -1.21875 26.3125 -1.21875 
Q 21.046875 -1.21875 16.921875 1.09375 
Q 12.796875 3.421875 9.953125 7.859375 
Q 7.125 12.3125 5.65625 18.78125 
Q 4.203125 25.25 4.203125 33.59375 
Q 4.203125 42.78125 5.734375 49.8125 
Q 7.28125 56.84375 10.25 61.59375 
Q 13.234375 66.359375 17.65625 68.765625 
Q 22.078125 71.1875 27.78125 71.1875 
Q 49.8125 71.1875 49.8125 35.296875 
z
M 41.609375 34.515625 
Q 41.609375 64.40625 27.390625 64.40625 
Q 12.40625 64.40625 12.40625 33.984375 
Q 12.40625 5.609375 27.09375 5.609375 
Q 41.609375 5.609375 41.609375 34.515625 
z
" id="SegoeUISymbol-48"/>
        <path d="M 18.796875 43.796875 
Q 13.1875 43.796875 9.234375 47.78125 
Q 5.28125 51.765625 5.28125 57.421875 
Q 5.28125 63.03125 9.1875 66.90625 
Q 13.09375 70.796875 18.703125 70.796875 
Q 24.359375 70.796875 28.34375 66.890625 
Q 32.328125 62.984375 32.328125 57.421875 
Q 32.328125 51.765625 28.375 47.78125 
Q 24.421875 43.796875 18.796875 43.796875 
z
M 18.796875 65.09375 
Q 15.625 65.09375 13.375 62.84375 
Q 11.140625 60.59375 11.140625 57.421875 
Q 11.140625 54.15625 13.328125 51.828125 
Q 15.53125 49.515625 18.703125 49.515625 
Q 21.875 49.515625 24.171875 51.859375 
Q 26.46875 54.203125 26.46875 57.421875 
Q 26.46875 60.640625 24.21875 62.859375 
Q 21.96875 65.09375 18.796875 65.09375 
z
" id="SegoeUISymbol-176"/>
       </defs>
       <use xlink:href="#SegoeUISymbol-48"/>
       <use x="53.90625" xlink:href="#SegoeUISymbol-176"/>
      </g>
     </g>
    </g>
    <g id="xtick_2">
     <g id="line2d_2">
      <path clip-path="url(#p8b679138a2)" d="M 288 288 
L 450.917402 125.082598 
" style="fill:none;stroke:#b0b0b0;stroke-linecap:square;stroke-width:0.8;"/>
     </g>
     <g id="text_2">
      <!-- 45° -->
      <g transform="translate(450.630804 118.75529)scale(0.14 -0.14)">
       <defs>
        <path d="M 41.5 70.015625 
L 41.5 23.78125 
L 50.484375 23.78125 
L 50.484375 16.453125 
L 41.5 16.453125 
L 41.5 0 
L 33.59375 0 
L 33.59375 16.453125 
L 0.6875 16.453125 
L 0.6875 23.390625 
Q 5.28125 28.5625 9.96875 34.4375 
Q 14.65625 40.328125 18.921875 46.375 
Q 23.1875 52.4375 26.828125 58.46875 
Q 30.46875 64.5 32.953125 70.015625 
z
M 9.71875 23.78125 
L 33.59375 23.78125 
L 33.59375 58.0625 
Q 29.9375 51.65625 26.65625 46.625 
Q 23.390625 41.609375 20.4375 37.5 
Q 17.484375 33.40625 14.796875 30.078125 
Q 12.109375 26.765625 9.71875 23.78125 
z
" id="SegoeUISymbol-52"/>
        <path d="M 47.3125 21.390625 
Q 47.3125 16.265625 45.546875 12.109375 
Q 43.796875 7.953125 40.546875 4.96875 
Q 37.3125 2 32.71875 0.390625 
Q 28.125 -1.21875 22.515625 -1.21875 
Q 12.75 -1.21875 8.015625 1.703125 
L 8.015625 10.203125 
Q 15.140625 5.609375 22.609375 5.609375 
Q 26.421875 5.609375 29.46875 6.734375 
Q 32.515625 7.859375 34.65625 9.859375 
Q 36.8125 11.859375 37.953125 14.6875 
Q 39.109375 17.53125 39.109375 20.90625 
Q 39.109375 27.734375 34.515625 31.609375 
Q 29.9375 35.5 21.1875 35.5 
Q 19.78125 35.5 18.21875 35.453125 
Q 16.65625 35.40625 15.09375 35.328125 
Q 13.53125 35.25 12.03125 35.15625 
Q 10.546875 35.0625 9.328125 34.90625 
L 11.71875 70.015625 
L 44.09375 70.015625 
L 44.09375 62.796875 
L 18.65625 62.796875 
L 17.234375 42.234375 
Q 18.796875 42.328125 20.546875 42.40625 
Q 22.3125 42.484375 23.6875 42.484375 
Q 29.25 42.484375 33.640625 41.015625 
Q 38.03125 39.546875 41.078125 36.828125 
Q 44.140625 34.125 45.71875 30.1875 
Q 47.3125 26.265625 47.3125 21.390625 
z
" id="SegoeUISymbol-53"/>
       </defs>
       <use xlink:href="#SegoeUISymbol-52"/>
       <use x="53.90625" xlink:href="#SegoeUISymbol-53"/>
       <use x="107.8125" xlink:href="#SegoeUISymbol-176"/>
      </g>
     </g>
    </g>
    <g id="xtick_3">
     <g id="line2d_3">
      <path clip-path="url(#p8b679138a2)" d="M 288 288 
L 288 57.6 
" style="fill:none;stroke:#b0b0b0;stroke-linecap:square;stroke-width:0.8;"/>
     </g>
     <g id="text_3">
      <!-- 90° -->
      <g transform="translate(277.813906 47.172188)scale(0.14 -0.14)">
       <defs>
        <path d="M 49.03125 39.203125 
Q 49.03125 29.59375 47.125 22.09375 
Q 45.21875 14.59375 41.546875 9.390625 
Q 37.890625 4.203125 32.609375 1.484375 
Q 27.34375 -1.21875 20.609375 -1.21875 
Q 13.671875 -1.21875 8.40625 1.21875 
L 8.40625 8.890625 
Q 14.203125 5.609375 20.796875 5.609375 
Q 25.53125 5.609375 29.265625 7.5625 
Q 33.015625 9.515625 35.59375 13.25 
Q 38.1875 17 39.546875 22.46875 
Q 40.921875 27.9375 40.921875 35.015625 
L 40.71875 35.015625 
Q 36.234375 25.984375 25.09375 25.984375 
Q 20.609375 25.984375 16.84375 27.5625 
Q 13.09375 29.15625 10.359375 32.0625 
Q 7.625 34.96875 6.109375 38.96875 
Q 4.59375 42.96875 4.59375 47.796875 
Q 4.59375 52.984375 6.265625 57.28125 
Q 7.953125 61.578125 10.953125 64.671875 
Q 13.96875 67.78125 18.09375 69.484375 
Q 22.21875 71.1875 27.09375 71.1875 
Q 32.375 71.1875 36.453125 69.0625 
Q 40.53125 66.9375 43.3125 62.859375 
Q 46.09375 58.796875 47.5625 52.828125 
Q 49.03125 46.875 49.03125 39.203125 
z
M 40.375 46.390625 
Q 40.375 50.4375 39.328125 53.75 
Q 38.28125 57.078125 36.421875 59.4375 
Q 34.578125 61.8125 32 63.109375 
Q 29.4375 64.40625 26.421875 64.40625 
Q 23.53125 64.40625 21.046875 63.25 
Q 18.5625 62.109375 16.71875 60.03125 
Q 14.890625 57.953125 13.84375 55.09375 
Q 12.796875 52.25 12.796875 48.875 
Q 12.796875 45.171875 13.796875 42.234375 
Q 14.796875 39.3125 16.640625 37.28125 
Q 18.5 35.25 21.109375 34.171875 
Q 23.734375 33.109375 26.90625 33.109375 
Q 29.6875 33.109375 32.15625 34.15625 
Q 34.625 35.203125 36.453125 36.984375 
Q 38.28125 38.765625 39.328125 41.1875 
Q 40.375 43.609375 40.375 46.390625 
z
" id="SegoeUISymbol-57"/>
       </defs>
       <use xlink:href="#SegoeUISymbol-57"/>
       <use x="53.90625" xlink:href="#SegoeUISymbol-48"/>
       <use x="107.8125" xlink:href="#SegoeUISymbol-176"/>
      </g>
     </g>
    </g>
    <g id="xtick_4">
     <g id="line2d_4">
      <path clip-path="url(#p8b679138a2)" d="M 288 288 
L 125.082598 125.082598 
" style="fill:none;stroke:#b0b0b0;stroke-linecap:square;stroke-width:0.8;"/>
     </g>
     <g id="text_4">
      <!-- 135° -->
      <g transform="translate(101.223571 118.75529)scale(0.14 -0.14)">
       <defs>
        <path d="M 35.359375 0 
L 27.34375 0 
L 27.34375 60.5 
Q 26.421875 59.578125 24.640625 58.375 
Q 22.859375 57.171875 20.625 56 
Q 18.40625 54.828125 15.9375 53.796875 
Q 13.484375 52.78125 11.140625 52.203125 
L 11.140625 60.296875 
Q 13.765625 61.03125 16.71875 62.28125 
Q 19.671875 63.53125 22.53125 65.0625 
Q 25.390625 66.609375 27.921875 68.28125 
Q 30.46875 69.96875 32.328125 71.578125 
L 35.359375 71.578125 
z
" id="SegoeUISymbol-49"/>
        <path d="M 46.53125 19.828125 
Q 46.53125 15.09375 44.75 11.203125 
Q 42.96875 7.328125 39.71875 4.5625 
Q 36.46875 1.8125 31.921875 0.296875 
Q 27.390625 -1.21875 21.921875 -1.21875 
Q 11.921875 -1.21875 6 2.59375 
L 6 11.1875 
Q 13.09375 5.609375 22.21875 5.609375 
Q 25.875 5.609375 28.828125 6.53125 
Q 31.78125 7.46875 33.90625 9.21875 
Q 36.03125 10.984375 37.171875 13.46875 
Q 38.328125 15.96875 38.328125 19.09375 
Q 38.328125 32.8125 18.796875 32.8125 
L 12.984375 32.8125 
L 12.984375 39.59375 
L 18.5 39.59375 
Q 35.796875 39.59375 35.796875 52.484375 
Q 35.796875 64.40625 22.609375 64.40625 
Q 15.1875 64.40625 8.6875 59.421875 
L 8.6875 67.1875 
Q 15.375 71.1875 24.609375 71.1875 
Q 29 71.1875 32.5625 69.96875 
Q 36.140625 68.75 38.671875 66.546875 
Q 41.21875 64.359375 42.609375 61.28125 
Q 44 58.203125 44 54.5 
Q 44 40.671875 30.03125 36.71875 
L 30.03125 36.53125 
Q 33.59375 36.140625 36.625 34.796875 
Q 39.65625 33.453125 41.84375 31.296875 
Q 44.046875 29.15625 45.28125 26.25 
Q 46.53125 23.34375 46.53125 19.828125 
z
" id="SegoeUISymbol-51"/>
       </defs>
       <use xlink:href="#SegoeUISymbol-49"/>
       <use x="53.90625" xlink:href="#SegoeUISymbol-51"/>
       <use x="107.8125" xlink:href="#SegoeUISymbol-53"/>
       <use x="161.71875" xlink:href="#SegoeUISymbol-176"/>
      </g>
     </g>
    </g>
    <g id="xtick_5">
     <g id="line2d_5">
      <path clip-path="url(#p8b679138a2)" d="M 288 288 
L 57.6 288 
" style="fill:none;stroke:#b0b0b0;stroke-linecap:square;stroke-width:0.8;"/>
     </g>
     <g id="text_5">
      <!-- 180° -->
      <g transform="translate(29.640469 291.572187)scale(0.14 -0.14)">
       <defs>
        <path d="M 4.390625 19.53125 
Q 4.390625 22.3125 5.265625 25.125 
Q 6.15625 27.9375 7.78125 30.375 
Q 9.421875 32.8125 11.84375 34.8125 
Q 14.265625 36.8125 17.328125 37.984375 
Q 12.796875 40.53125 10.109375 44.5 
Q 7.421875 48.484375 7.421875 53.328125 
Q 7.421875 57.171875 8.90625 60.4375 
Q 10.40625 63.71875 13.03125 66.109375 
Q 15.671875 68.5 19.28125 69.84375 
Q 22.90625 71.1875 27.09375 71.1875 
Q 31.34375 71.1875 34.953125 69.8125 
Q 38.578125 68.453125 41.203125 66.0625 
Q 43.84375 63.671875 45.3125 60.390625 
Q 46.78125 57.125 46.78125 53.328125 
Q 46.78125 48.484375 44.09375 44.5 
Q 41.40625 40.53125 36.96875 37.984375 
Q 39.984375 36.8125 42.375 34.8125 
Q 44.78125 32.8125 46.40625 30.375 
Q 48.046875 27.9375 48.921875 25.125 
Q 49.8125 22.3125 49.8125 19.53125 
Q 49.8125 14.9375 48.140625 11.125 
Q 46.484375 7.328125 43.484375 4.609375 
Q 40.484375 1.90625 36.296875 0.390625 
Q 32.125 -1.125 27.09375 -1.125 
Q 22.125 -1.125 17.96875 0.390625 
Q 13.8125 1.90625 10.78125 4.609375 
Q 7.765625 7.328125 6.078125 11.125 
Q 4.390625 14.9375 4.390625 19.53125 
z
M 13.09375 20.21875 
Q 13.09375 16.9375 14.09375 14.296875 
Q 15.09375 11.671875 16.921875 9.8125 
Q 18.75 7.953125 21.359375 6.953125 
Q 23.96875 5.953125 27.15625 5.953125 
Q 30.21875 5.953125 32.8125 6.984375 
Q 35.40625 8.015625 37.28125 9.859375 
Q 39.15625 11.71875 40.203125 14.359375 
Q 41.265625 17 41.265625 20.21875 
Q 41.265625 23.140625 40.265625 25.703125 
Q 39.265625 28.265625 37.40625 30.21875 
Q 35.546875 32.171875 32.953125 33.296875 
Q 30.375 34.421875 27.15625 34.421875 
Q 24.125 34.421875 21.5625 33.375 
Q 19 32.328125 17.109375 30.4375 
Q 15.234375 28.5625 14.15625 25.953125 
Q 13.09375 23.34375 13.09375 20.21875 
z
M 15.578125 52.6875 
Q 15.578125 50.203125 16.484375 48.078125 
Q 17.390625 45.953125 18.96875 44.359375 
Q 20.5625 42.78125 22.65625 41.875 
Q 24.75 40.96875 27.15625 40.96875 
Q 29.546875 40.96875 31.671875 41.890625 
Q 33.796875 42.828125 35.359375 44.40625 
Q 36.921875 46 37.84375 48.125 
Q 38.765625 50.25 38.765625 52.6875 
Q 38.765625 55.21875 37.859375 57.359375 
Q 36.96875 59.515625 35.40625 61.078125 
Q 33.84375 62.640625 31.71875 63.546875 
Q 29.59375 64.453125 27.15625 64.453125 
Q 24.5625 64.453125 22.4375 63.515625 
Q 20.3125 62.59375 18.765625 61 
Q 17.234375 59.421875 16.40625 57.265625 
Q 15.578125 55.125 15.578125 52.6875 
z
" id="SegoeUISymbol-56"/>
       </defs>
       <use xlink:href="#SegoeUISymbol-49"/>
       <use x="53.90625" xlink:href="#SegoeUISymbol-56"/>
       <use x="107.8125" xlink:href="#SegoeUISymbol-48"/>
       <use x="161.71875" xlink:href="#SegoeUISymbol-176"/>
      </g>
     </g>
    </g>
    <g id="xtick_6">
     <g id="line2d_6">
      <path clip-path="url(#p8b679138a2)" d="M 288 288 
L 125.082598 450.917402 
" style="fill:none;stroke:#b0b0b0;stroke-linecap:square;stroke-width:0.8;"/>
     </g>
     <g id="text_6">
      <!-- 225° -->
      <g transform="translate(101.223571 464.389085)scale(0.14 -0.14)">
       <defs>
        <path d="M 37.703125 51.65625 
Q 37.703125 54.890625 36.6875 57.28125 
Q 35.6875 59.671875 33.953125 61.25 
Q 32.234375 62.84375 29.890625 63.625 
Q 27.546875 64.40625 24.8125 64.40625 
Q 22.46875 64.40625 20.21875 63.765625 
Q 17.96875 63.140625 15.84375 62.015625 
Q 13.71875 60.890625 11.734375 59.328125 
Q 9.765625 57.765625 8.0625 55.859375 
L 8.0625 64.453125 
Q 11.421875 67.71875 15.59375 69.453125 
Q 19.78125 71.1875 25.78125 71.1875 
Q 30.078125 71.1875 33.734375 69.9375 
Q 37.40625 68.703125 40.09375 66.3125 
Q 42.78125 63.921875 44.3125 60.40625 
Q 45.84375 56.890625 45.84375 52.34375 
Q 45.84375 48.1875 44.890625 44.8125 
Q 43.953125 41.453125 42.015625 38.46875 
Q 40.09375 35.5 37.15625 32.765625 
Q 34.234375 30.03125 30.28125 27.203125 
Q 25.34375 23.6875 22.140625 21.1875 
Q 18.953125 18.703125 17.0625 16.53125 
Q 15.1875 14.359375 14.421875 12.1875 
Q 13.671875 10.015625 13.671875 7.171875 
L 48.53125 7.171875 
L 48.53125 0 
L 5.328125 0 
L 5.328125 3.46875 
Q 5.328125 7.953125 6.296875 11.375 
Q 7.28125 14.796875 9.515625 17.875 
Q 11.765625 20.953125 15.40625 24.015625 
Q 19.046875 27.09375 24.3125 30.953125 
Q 28.125 33.6875 30.6875 36.171875 
Q 33.25 38.671875 34.8125 41.15625 
Q 36.375 43.65625 37.03125 46.21875 
Q 37.703125 48.78125 37.703125 51.65625 
z
" id="SegoeUISymbol-50"/>
       </defs>
       <use xlink:href="#SegoeUISymbol-50"/>
       <use x="53.90625" xlink:href="#SegoeUISymbol-50"/>
       <use x="107.8125" xlink:href="#SegoeUISymbol-53"/>
       <use x="161.71875" xlink:href="#SegoeUISymbol-176"/>
      </g>
     </g>
    </g>
    <g id="xtick_7">
     <g id="line2d_7">
      <path clip-path="url(#p8b679138a2)" d="M 288 288 
L 288 518.4 
" style="fill:none;stroke:#b0b0b0;stroke-linecap:square;stroke-width:0.8;"/>
     </g>
     <g id="text_7">
      <!-- 270° -->
      <g transform="translate(274.040469 535.972188)scale(0.14 -0.14)">
       <defs>
        <path d="M 49.3125 65.375 
Q 47.703125 62.59375 45.4375 58.4375 
Q 43.171875 54.296875 40.625 49.125 
Q 38.09375 43.953125 35.453125 37.984375 
Q 32.8125 32.03125 30.515625 25.6875 
Q 28.21875 19.34375 26.484375 12.8125 
Q 24.75 6.296875 23.96875 0 
L 15.375 0 
Q 16.265625 6.25 18.09375 12.765625 
Q 19.921875 19.28125 22.234375 25.5625 
Q 24.5625 31.84375 27.140625 37.640625 
Q 29.734375 43.453125 32.171875 48.328125 
Q 34.625 53.21875 36.640625 56.953125 
Q 38.671875 60.6875 39.890625 62.796875 
L 4.78125 62.796875 
L 4.78125 70.015625 
L 49.3125 70.015625 
z
" id="SegoeUISymbol-55"/>
       </defs>
       <use xlink:href="#SegoeUISymbol-50"/>
       <use x="53.90625" xlink:href="#SegoeUISymbol-55"/>
       <use x="107.8125" xlink:href="#SegoeUISymbol-48"/>
       <use x="161.71875" xlink:href="#SegoeUISymbol-176"/>
      </g>
     </g>
    </g>
    <g id="xtick_8">
     <g id="line2d_8">
      <path clip-path="url(#p8b679138a2)" d="M 288 288 
L 450.917402 450.917402 
" style="fill:none;stroke:#b0b0b0;stroke-linecap:square;stroke-width:0.8;"/>
     </g>
     <g id="text_8">
      <!-- 315° -->
      <g transform="translate(446.857366 464.389085)scale(0.14 -0.14)">
       <use xlink:href="#SegoeUISymbol-51"/>
       <use x="53.90625" xlink:href="#SegoeUISymbol-49"/>
       <use x="107.8125" xlink:href="#SegoeUISymbol-53"/>
       <use x="161.71875" xlink:href="#SegoeUISymbol-176"/>
      </g>
     </g>
    </g>
   </g>
   <g id="matplotlib.axis_2">
    <g id="ytick_1">
     <g id="line2d_9">
      <path clip-path="url(#p8b679138a2)" d="M 334.08 288 
C 334.08 281.94883 332.888051 275.9565 330.572369 270.365947 
C 328.256686 264.775395 324.862304 259.695343 320.58348 255.41652 
C 316.304657 251.137696 311.224605 247.743314 305.634053 245.427631 
C 300.0435 243.111949 294.05117 241.92 288 241.92 
C 281.94883 241.92 275.9565 243.111949 270.365947 245.427631 
C 264.775395 247.743314 259.695343 251.137696 255.41652 255.41652 
C 251.137696 259.695343 247.743314 264.775395 245.427631 270.365947 
C 243.111949 275.9565 241.92 281.94883 241.92 288 
C 241.92 294.05117 243.111949 300.0435 245.427631 305.634053 
C 247.743314 311.224605 251.137696 316.304657 255.41652 320.58348 
C 259.695343 324.862304 264.775395 328.256686 270.365947 330.572369 
C 275.9565 332.888051 281.94883 334.08 288 334.08 
C 294.05117 334.08 300.0435 332.888051 305.634053 330.572369 
C 311.224605 328.256686 316.304657 324.862304 320.58348 320.58348 
C 324.862304 316.304657 328.256686 311.224605 330.572369 305.634053 
C 332.888051 300.0435 334.08 294.05117 334.08 288 
" style="fill:none;stroke:#b0b0b0;stroke-linecap:square;stroke-width:0.8;"/>
     </g>
     <g id="text_9">
      <!-- 7.4 -->
      <g transform="translate(305.634053 242.207631)scale(0.14 -0.14)">
       <defs>
        <path d="M 10.890625 -1.078125 
Q 8.640625 -1.078125 7.046875 0.53125 
Q 5.46875 2.15625 5.46875 4.390625 
Q 5.46875 6.640625 7.046875 8.265625 
Q 8.640625 9.90625 10.890625 9.90625 
Q 13.1875 9.90625 14.796875 8.265625 
Q 16.40625 6.640625 16.40625 4.390625 
Q 16.40625 2.15625 14.796875 0.53125 
Q 13.1875 -1.078125 10.890625 -1.078125 
z
" id="SegoeUISymbol-46"/>
       </defs>
       <use xlink:href="#SegoeUISymbol-55"/>
       <use x="53.90625" xlink:href="#SegoeUISymbol-46"/>
       <use x="75.585938" xlink:href="#SegoeUISymbol-52"/>
      </g>
     </g>
    </g>
    <g id="ytick_2">
     <g id="line2d_10">
      <path clip-path="url(#p8b679138a2)" d="M 380.16 288 
C 380.16 275.89766 377.776103 263.912999 373.144738 252.731895 
C 368.513373 241.55079 361.724608 231.390686 353.166961 222.833039 
C 344.609314 214.275392 334.44921 207.486627 323.268105 202.855262 
C 312.087001 198.223897 300.10234 195.84 288 195.84 
C 275.89766 195.84 263.912999 198.223897 252.731895 202.855262 
C 241.55079 207.486627 231.390686 214.275392 222.833039 222.833039 
C 214.275392 231.390686 207.486627 241.55079 202.855262 252.731895 
C 198.223897 263.912999 195.84 275.89766 195.84 288 
C 195.84 300.10234 198.223897 312.087001 202.855262 323.268105 
C 207.486627 334.44921 214.275392 344.609314 222.833039 353.166961 
C 231.390686 361.724608 241.55079 368.513373 252.731895 373.144738 
C 263.912999 377.776103 275.89766 380.16 288 380.16 
C 300.10234 380.16 312.087001 377.776103 323.268105 373.144738 
C 334.44921 368.513373 344.609314 361.724608 353.166961 353.166961 
C 361.724608 344.609314 368.513373 334.44921 373.144738 323.268105 
C 377.776103 312.087001 380.16 300.10234 380.16 288 
" style="fill:none;stroke:#b0b0b0;stroke-linecap:square;stroke-width:0.8;"/>
     </g>
     <g id="text_10">
      <!-- 14.8 -->
      <g transform="translate(323.268105 199.635262)scale(0.14 -0.14)">
       <use xlink:href="#SegoeUISymbol-49"/>
       <use x="53.90625" xlink:href="#SegoeUISymbol-52"/>
       <use x="107.8125" xlink:href="#SegoeUISymbol-46"/>
       <use x="129.492188" xlink:href="#SegoeUISymbol-56"/>
      </g>
     </g>
    </g>
    <g id="ytick_3">
     <g id="line2d_11">
      <path clip-path="url(#p8b679138a2)" d="M 426.24 288 
C 426.24 269.84649 422.664154 251.869499 415.717107 235.097842 
C 408.770059 218.326186 398.586912 203.086029 385.750441 190.249559 
C 372.913971 177.413088 357.673814 167.229941 340.902158 160.282893 
C 324.130501 153.335846 306.15351 149.76 288 149.76 
C 269.84649 149.76 251.869499 153.335846 235.097842 160.282893 
C 218.326186 167.229941 203.086029 177.413088 190.249559 190.249559 
C 177.413088 203.086029 167.229941 218.326186 160.282893 235.097842 
C 153.335846 251.869499 149.76 269.84649 149.76 288 
C 149.76 306.15351 153.335846 324.130501 160.282893 340.902158 
C 167.229941 357.673814 177.413088 372.913971 190.249559 385.750441 
C 203.086029 398.586912 218.326186 408.770059 235.097842 415.717107 
C 251.869499 422.664154 269.84649 426.24 288 426.24 
C 306.15351 426.24 324.130501 422.664154 340.902158 415.717107 
C 357.673814 408.770059 372.913971 398.586912 385.750441 385.750441 
C 398.586912 372.913971 408.770059 357.673814 415.717107 340.902158 
C 422.664154 324.130501 426.24 306.15351 426.24 288 
" style="fill:none;stroke:#b0b0b0;stroke-linecap:square;stroke-width:0.8;"/>
     </g>
     <g id="text_11">
      <!-- 22.2 -->
      <g transform="translate(340.902158 157.062893)scale(0.14 -0.14)">
       <use xlink:href="#SegoeUISymbol-50"/>
       <use x="53.90625" xlink:href="#SegoeUISymbol-50"/>
       <use x="107.8125" xlink:href="#SegoeUISymbol-46"/>
       <use x="129.492188" xlink:href="#SegoeUISymbol-50"/>
      </g>
     </g>
    </g>
    <g id="ytick_4">
     <g id="line2d_12">
      <path clip-path="url(#p8b679138a2)" d="M 472.32 288 
C 472.32 263.795319 467.552206 239.825999 458.289475 217.46379 
C 449.026745 195.101581 435.449216 174.781372 418.333922 157.666078 
C 401.218628 140.550784 380.898419 126.973255 358.53621 117.710525 
C 336.174001 108.447794 312.204681 103.68 288 103.68 
C 263.795319 103.68 239.825999 108.447794 217.46379 117.710525 
C 195.101581 126.973255 174.781372 140.550784 157.666078 157.666078 
C 140.550784 174.781372 126.973255 195.101581 117.710525 217.46379 
C 108.447794 239.825999 103.68 263.795319 103.68 288 
C 103.68 312.204681 108.447794 336.174001 117.710525 358.53621 
C 126.973255 380.898419 140.550784 401.218628 157.666078 418.333922 
C 174.781372 435.449216 195.101581 449.026745 217.46379 458.289475 
C 239.825999 467.552206 263.795319 472.32 288 472.32 
C 312.204681 472.32 336.174001 467.552206 358.53621 458.289475 
C 380.898419 449.026745 401.218628 435.449216 418.333922 418.333922 
C 435.449216 401.218628 449.026745 380.898419 458.289475 358.53621 
C 467.552206 336.174001 472.32 312.204681 472.32 288 
" style="fill:none;stroke:#b0b0b0;stroke-linecap:square;stroke-width:0.8;"/>
     </g>
     <g id="text_12">
      <!-- 29.6 -->
      <g transform="translate(358.53621 114.490525)scale(0.14 -0.14)">
       <defs>
        <path d="M 49.90625 22.21875 
Q 49.90625 17.09375 48.234375 12.796875 
Q 46.578125 8.5 43.640625 5.375 
Q 40.71875 2.25 36.671875 0.515625 
Q 32.625 -1.21875 27.875 -1.21875 
Q 22.609375 -1.21875 18.4375 0.96875 
Q 14.265625 3.171875 11.359375 7.296875 
Q 8.453125 11.421875 6.9375 17.375 
Q 5.421875 23.34375 5.421875 30.8125 
Q 5.421875 39.9375 7.4375 47.375 
Q 9.46875 54.828125 13.203125 60.125 
Q 16.9375 65.4375 22.203125 68.3125 
Q 27.484375 71.1875 33.984375 71.1875 
Q 41.21875 71.1875 45.609375 69.1875 
L 45.609375 61.625 
Q 40.1875 64.40625 34.1875 64.40625 
Q 29.5 64.40625 25.734375 62.296875 
Q 21.96875 60.203125 19.28125 56.375 
Q 16.609375 52.546875 15.15625 47.125 
Q 13.71875 41.703125 13.71875 35.0625 
L 13.921875 35.0625 
Q 18.75 43.796875 29.890625 43.796875 
Q 34.46875 43.796875 38.15625 42.234375 
Q 41.84375 40.671875 44.453125 37.8125 
Q 47.078125 34.96875 48.484375 31 
Q 49.90625 27.046875 49.90625 22.21875 
z
M 41.703125 21.1875 
Q 41.703125 24.859375 40.765625 27.78125 
Q 39.84375 30.71875 38.109375 32.765625 
Q 36.375 34.8125 33.828125 35.90625 
Q 31.296875 37.015625 28.078125 37.015625 
Q 25.09375 37.015625 22.546875 35.890625 
Q 20.015625 34.765625 18.15625 32.828125 
Q 16.3125 30.90625 15.25 28.34375 
Q 14.203125 25.78125 14.203125 22.90625 
Q 14.203125 19.28125 15.234375 16.125 
Q 16.265625 12.984375 18.109375 10.640625 
Q 19.96875 8.296875 22.53125 6.953125 
Q 25.09375 5.609375 28.21875 5.609375 
Q 31.25 5.609375 33.734375 6.75 
Q 36.234375 7.90625 37.984375 9.953125 
Q 39.75 12.015625 40.71875 14.859375 
Q 41.703125 17.71875 41.703125 21.1875 
z
" id="SegoeUISymbol-54"/>
       </defs>
       <use xlink:href="#SegoeUISymbol-50"/>
       <use x="53.90625" xlink:href="#SegoeUISymbol-57"/>
       <use x="107.8125" xlink:href="#SegoeUISymbol-46"/>
       <use x="129.492188" xlink:href="#SegoeUISymbol-54"/>
      </g>
     </g>
    </g>
    <g id="ytick_5">
     <g id="line2d_13">
      <path clip-path="url(#p8b679138a2)" d="M 518.4 288 
C 518.4 257.744149 512.440257 227.782498 500.861844 199.829737 
C 489.283431 171.876976 472.31152 146.476715 450.917402 125.082598 
C 429.523285 103.68848 404.123024 86.716569 376.170263 75.138156 
C 348.217502 63.559743 318.255851 57.6 288 57.6 
C 257.744149 57.6 227.782498 63.559743 199.829737 75.138156 
C 171.876976 86.716569 146.476715 103.68848 125.082598 125.082598 
C 103.68848 146.476715 86.716569 171.876976 75.138156 199.829737 
C 63.559743 227.782498 57.6 257.744149 57.6 288 
C 57.6 318.255851 63.559743 348.217502 75.138156 376.170263 
C 86.716569 404.123024 103.68848 429.523285 125.082598 450.917402 
C 146.476715 472.31152 171.876976 489.283431 199.829737 500.861844 
C 227.782498 512.440257 257.744149 518.4 288 518.4 
C 318.255851 518.4 348.217502 512.440257 376.170263 500.861844 
C 404.123024 489.283431 429.523285 472.31152 450.917402 450.917402 
C 472.31152 429.523285 489.283431 404.123024 500.861844 376.170263 
C 512.440257 348.217502 518.4 318.255851 518.4 288 
" style="fill:none;stroke:#b0b0b0;stroke-linecap:square;stroke-width:0.8;"/>
     </g>
     <g id="text_13">
      <!-- 37.0 -->
      <g transform="translate(376.170263 71.918156)scale(0.14 -0.14)">
       <use xlink:href="#SegoeUISymbol-51"/>
       <use x="53.90625" xlink:href="#SegoeUISymbol-55"/>
       <use x="107.8125" xlink:href="#SegoeUISymbol-46"/>
       <use x="129.492188" xlink:href="#SegoeUISymbol-48"/>
      </g>
     </g>
    </g>
   </g>
   <g id="patch_99">
    <path d="M 518.4 288 
C 518.4 257.744149 512.440257 227.782498 500.861844 199.829737 
C 489.283431 171.876976 472.31152 146.476715 450.917402 125.082598 
C 429.523285 103.68848 404.123024 86.716569 376.170263 75.138156 
C 348.217502 63.559743 318.255851 57.6 288 57.6 
C 257.744149 57.6 227.782498 63.559743 199.829737 75.138156 
C 171.876976 86.716569 146.476715 103.68848 125.082598 125.082598 
C 103.68848 146.476715 86.716569 171.876976 75.138156 199.829737 
C 63.559743 227.782498 57.6 257.744149 57.6 288 
C 57.6 318.255851 63.559743 348.217502 75.138156 376.170263 
C 86.716569 404.123024 103.68848 429.523285 125.082598 450.917402 
C 146.476715 472.31152 171.876976 489.283431 199.829737 500.861844 
C 227.782498 512.440257 257.744149 518.4 288 518.4 
C 318.255851 518.4 348.217502 512.440257 376.170263 500.861844 
C 404.123024 489.283431 429.523285 472.31152 450.917402 450.917402 
C 472.31152 429.523285 489.283431 404.123024 500.861844 376.170263 
C 512.440257 348.217502 518.4 318.255851 518.4 288 
" style="fill:none;stroke:#000000;stroke-linecap:square;stroke-linejoin:miter;stroke-width:0.8;"/>
   </g>
   <g id="legend_1">
    <g id="patch_100">
     <path d="M 59 519.8 
L 144.09 519.8 
Q 146.89 519.8 146.89 517 
L 146.89 406.56 
Q 146.89 403.76 144.09 403.76 
L 59 403.76 
Q 56.2 403.76 56.2 406.56 
L 56.2 517 
Q 56.2 519.8 59 519.8 
z
" style="fill:#ffffff;opacity:0.8;stroke:#cccccc;stroke-linejoin:miter;"/>
    </g>
    <g id="patch_101">
     <path d="M 61.8 419.16 
L 89.8 419.16 
L 89.8 409.36 
L 61.8 409.36 
z
" style="fill:#440154;stroke:#000000;stroke-linejoin:miter;"/>
    </g>
    <g id="text_14">
     <!-- [2.0 : 12.4) -->
     <g transform="translate(101 419.16)scale(0.08 -0.08)">
      <defs>
       <path d="M 27.734375 -15.921875 
L 9.765625 -15.921875 
L 9.765625 70.015625 
L 27.734375 70.015625 
L 27.734375 64.203125 
L 16.890625 64.203125 
L 16.890625 -10.109375 
L 27.734375 -10.109375 
z
" id="SegoeUISymbol-91"/>
       <path id="SegoeUISymbol-32"/>
       <path d="M 10.890625 40.234375 
Q 8.640625 40.234375 7.046875 41.84375 
Q 5.46875 43.453125 5.46875 45.703125 
Q 5.46875 47.953125 7.046875 49.515625 
Q 8.640625 51.078125 10.890625 51.078125 
Q 13.1875 51.078125 14.796875 49.515625 
Q 16.40625 47.953125 16.40625 45.703125 
Q 16.40625 43.453125 14.796875 41.84375 
Q 13.1875 40.234375 10.890625 40.234375 
z
M 10.890625 -1.078125 
Q 8.640625 -1.078125 7.046875 0.53125 
Q 5.46875 2.15625 5.46875 4.390625 
Q 5.46875 6.640625 7.046875 8.265625 
Q 8.640625 9.90625 10.890625 9.90625 
Q 13.1875 9.90625 14.796875 8.265625 
Q 16.40625 6.640625 16.40625 4.390625 
Q 16.40625 2.15625 14.796875 0.53125 
Q 13.1875 -1.078125 10.890625 -1.078125 
z
" id="SegoeUISymbol-58"/>
       <path d="M 8.296875 -15.921875 
L 1.171875 -15.921875 
Q 16.40625 2.34375 16.40625 26.8125 
Q 16.40625 51.46875 1.078125 70.015625 
L 8.296875 70.015625 
Q 23.53125 52.15625 23.53125 26.703125 
Q 23.53125 1.375 8.296875 -15.921875 
z
" id="SegoeUISymbol-41"/>
      </defs>
      <use xlink:href="#SegoeUISymbol-91"/>
      <use x="30.175781" xlink:href="#SegoeUISymbol-50"/>
      <use x="84.082031" xlink:href="#SegoeUISymbol-46"/>
      <use x="105.761719" xlink:href="#SegoeUISymbol-48"/>
      <use x="159.667969" xlink:href="#SegoeUISymbol-32"/>
      <use x="187.060547" xlink:href="#SegoeUISymbol-58"/>
      <use x="208.740234" xlink:href="#SegoeUISymbol-32"/>
      <use x="236.132812" xlink:href="#SegoeUISymbol-49"/>
      <use x="290.039062" xlink:href="#SegoeUISymbol-50"/>
      <use x="343.945312" xlink:href="#SegoeUISymbol-46"/>
      <use x="365.625" xlink:href="#SegoeUISymbol-52"/>
      <use x="419.53125" xlink:href="#SegoeUISymbol-41"/>
     </g>
    </g>
    <g id="patch_102">
     <path d="M 61.8 437.8 
L 89.8 437.8 
L 89.8 428 
L 61.8 428 
z
" style="fill:#414487;stroke:#000000;stroke-linejoin:miter;"/>
    </g>
    <g id="text_15">
     <!-- [12.4 : 22.8) -->
     <g transform="translate(101 437.8)scale(0.08 -0.08)">
      <use xlink:href="#SegoeUISymbol-91"/>
      <use x="30.175781" xlink:href="#SegoeUISymbol-49"/>
      <use x="84.082031" xlink:href="#SegoeUISymbol-50"/>
      <use x="137.988281" xlink:href="#SegoeUISymbol-46"/>
      <use x="159.667969" xlink:href="#SegoeUISymbol-52"/>
      <use x="213.574219" xlink:href="#SegoeUISymbol-32"/>
      <use x="240.966797" xlink:href="#SegoeUISymbol-58"/>
      <use x="262.646484" xlink:href="#SegoeUISymbol-32"/>
      <use x="290.039062" xlink:href="#SegoeUISymbol-50"/>
      <use x="343.945312" xlink:href="#SegoeUISymbol-50"/>
      <use x="397.851562" xlink:href="#SegoeUISymbol-46"/>
      <use x="419.53125" xlink:href="#SegoeUISymbol-56"/>
      <use x="473.4375" xlink:href="#SegoeUISymbol-41"/>
     </g>
    </g>
    <g id="patch_103">
     <path d="M 61.8 456.44 
L 89.8 456.44 
L 89.8 446.64 
L 61.8 446.64 
z
" style="fill:#2a788e;stroke:#000000;stroke-linejoin:miter;"/>
    </g>
    <g id="text_16">
     <!-- [22.8 : 33.2) -->
     <g transform="translate(101 456.44)scale(0.08 -0.08)">
      <use xlink:href="#SegoeUISymbol-91"/>
      <use x="30.175781" xlink:href="#SegoeUISymbol-50"/>
      <use x="84.082031" xlink:href="#SegoeUISymbol-50"/>
      <use x="137.988281" xlink:href="#SegoeUISymbol-46"/>
      <use x="159.667969" xlink:href="#SegoeUISymbol-56"/>
      <use x="213.574219" xlink:href="#SegoeUISymbol-32"/>
      <use x="240.966797" xlink:href="#SegoeUISymbol-58"/>
      <use x="262.646484" xlink:href="#SegoeUISymbol-32"/>
      <use x="290.039062" xlink:href="#SegoeUISymbol-51"/>
      <use x="343.945312" xlink:href="#SegoeUISymbol-51"/>
      <use x="397.851562" xlink:href="#SegoeUISymbol-46"/>
      <use x="419.53125" xlink:href="#SegoeUISymbol-50"/>
      <use x="473.4375" xlink:href="#SegoeUISymbol-41"/>
     </g>
    </g>
    <g id="patch_104">
     <path d="M 61.8 475.08 
L 89.8 475.08 
L 89.8 465.28 
L 61.8 465.28 
z
" style="fill:#22a884;stroke:#000000;stroke-linejoin:miter;"/>
    </g>
    <g id="text_17">
     <!-- [33.2 : 43.6) -->
     <g transform="translate(101 475.08)scale(0.08 -0.08)">
      <use xlink:href="#SegoeUISymbol-91"/>
      <use x="30.175781" xlink:href="#SegoeUISymbol-51"/>
      <use x="84.082031" xlink:href="#SegoeUISymbol-51"/>
      <use x="137.988281" xlink:href="#SegoeUISymbol-46"/>
      <use x="159.667969" xlink:href="#SegoeUISymbol-50"/>
      <use x="213.574219" xlink:href="#SegoeUISymbol-32"/>
      <use x="240.966797" xlink:href="#SegoeUISymbol-58"/>
      <use x="262.646484" xlink:href="#SegoeUISymbol-32"/>
      <use x="290.039062" xlink:href="#SegoeUISymbol-52"/>
      <use x="343.945312" xlink:href="#SegoeUISymbol-51"/>
      <use x="397.851562" xlink:href="#SegoeUISymbol-46"/>
      <use x="419.53125" xlink:href="#SegoeUISymbol-54"/>
      <use x="473.4375" xlink:href="#SegoeUISymbol-41"/>
     </g>
    </g>
    <g id="patch_105">
     <path d="M 61.8 493.72 
L 89.8 493.72 
L 89.8 483.92 
L 61.8 483.92 
z
" style="fill:#7ad151;stroke:#000000;stroke-linejoin:miter;"/>
    </g>
    <g id="text_18">
     <!-- [43.6 : 54.0) -->
     <g transform="translate(101 493.72)scale(0.08 -0.08)">
      <use xlink:href="#SegoeUISymbol-91"/>
      <use x="30.175781" xlink:href="#SegoeUISymbol-52"/>
      <use x="84.082031" xlink:href="#SegoeUISymbol-51"/>
      <use x="137.988281" xlink:href="#SegoeUISymbol-46"/>
      <use x="159.667969" xlink:href="#SegoeUISymbol-54"/>
      <use x="213.574219" xlink:href="#SegoeUISymbol-32"/>
      <use x="240.966797" xlink:href="#SegoeUISymbol-58"/>
      <use x="262.646484" xlink:href="#SegoeUISymbol-32"/>
      <use x="290.039062" xlink:href="#SegoeUISymbol-53"/>
      <use x="343.945312" xlink:href="#SegoeUISymbol-52"/>
      <use x="397.851562" xlink:href="#SegoeUISymbol-46"/>
      <use x="419.53125" xlink:href="#SegoeUISymbol-48"/>
      <use x="473.4375" xlink:href="#SegoeUISymbol-41"/>
     </g>
    </g>
    <g id="patch_106">
     <path d="M 61.8 512.36 
L 89.8 512.36 
L 89.8 502.56 
L 61.8 502.56 
z
" style="fill:#fde725;stroke:#000000;stroke-linejoin:miter;"/>
    </g>
    <g id="text_19">
     <!-- [54.0 : inf) -->
     <g transform="translate(101 512.36)scale(0.08 -0.08)">
      <defs>
       <path d="M 12.203125 62.703125 
Q 10.0625 62.703125 8.546875 64.15625 
Q 7.03125 65.625 7.03125 67.875 
Q 7.03125 70.125 8.546875 71.609375 
Q 10.0625 73.09375 12.203125 73.09375 
Q 14.40625 73.09375 15.9375 71.609375 
Q 17.484375 70.125 17.484375 67.875 
Q 17.484375 65.71875 15.9375 64.203125 
Q 14.40625 62.703125 12.203125 62.703125 
z
M 16.109375 0 
L 8.109375 0 
L 8.109375 50 
L 16.109375 50 
z
" id="SegoeUISymbol-105"/>
       <path d="M 49.609375 0 
L 41.609375 0 
L 41.609375 28.515625 
Q 41.609375 44.4375 29.984375 44.4375 
Q 23.96875 44.4375 20.03125 39.921875 
Q 16.109375 35.40625 16.109375 28.515625 
L 16.109375 0 
L 8.109375 0 
L 8.109375 50 
L 16.109375 50 
L 16.109375 41.703125 
L 16.3125 41.703125 
Q 21.96875 51.171875 32.71875 51.171875 
Q 40.921875 51.171875 45.265625 45.875 
Q 49.609375 40.578125 49.609375 30.5625 
z
" id="SegoeUISymbol-110"/>
       <path d="M 32.8125 67 
Q 30.46875 68.3125 27.484375 68.3125 
Q 19.09375 68.3125 19.09375 57.71875 
L 19.09375 50 
L 30.8125 50 
L 30.8125 43.171875 
L 19.09375 43.171875 
L 19.09375 0 
L 11.140625 0 
L 11.140625 43.171875 
L 2.59375 43.171875 
L 2.59375 50 
L 11.140625 50 
L 11.140625 58.109375 
Q 11.140625 65.96875 15.671875 70.53125 
Q 20.21875 75.09375 27 75.09375 
Q 30.671875 75.09375 32.8125 74.21875 
z
" id="SegoeUISymbol-102"/>
      </defs>
      <use xlink:href="#SegoeUISymbol-91"/>
      <use x="30.175781" xlink:href="#SegoeUISymbol-53"/>
      <use x="84.082031" xlink:href="#SegoeUISymbol-52"/>
      <use x="137.988281" xlink:href="#SegoeUISymbol-46"/>
      <use x="159.667969" xlink:href="#SegoeUISymbol-48"/>
      <use x="213.574219" xlink:href="#SegoeUISymbol-32"/>
      <use x="240.966797" xlink:href="#SegoeUISymbol-58"/>
      <use x="262.646484" xlink:href="#SegoeUISymbol-32"/>
      <use x="290.039062" xlink:href="#SegoeUISymbol-105"/>
      <use x="314.257812" xlink:href="#SegoeUISymbol-110"/>
      <use x="370.849609" xlink:href="#SegoeUISymbol-102"/>
      <use x="409.023438" xlink:href="#SegoeUISymbol-41"/>
     </g>
    </g>
   </g>
  </g>
 </g>
 <defs>
  <clipPath id="p8b679138a2">
   <path d="M 518.4 288 
C 518.4 257.744149 512.440257 227.782498 500.861844 199.829737 
C 489.283431 171.876976 472.31152 146.476715 450.917402 125.082598 
C 429.523285 103.68848 404.123024 86.716569 376.170263 75.138156 
C 348.217502 63.559743 318.255851 57.6 288 57.6 
C 257.744149 57.6 227.782498 63.559743 199.829737 75.138156 
C 171.876976 86.716569 146.476715 103.68848 125.082598 125.082598 
C 103.68848 146.476715 86.716569 171.876976 75.138156 199.829737 
C 63.559743 227.782498 57.6 257.744149 57.6 288 
C 57.6 318.255851 63.559743 348.217502 75.138156 376.170263 
C 86.716569 404.123024 103.68848 429.523285 125.082598 450.917402 
C 146.476715 472.31152 171.876976 489.283431 199.829737 500.861844 
C 227.782498 512.440257 257.744149 518.4 288 518.4 
C 318.255851 518.4 348.217502 512.440257 376.170263 500.861844 
C 404.123024 489.283431 429.523285 472.31152 450.917402 450.917402 
C 472.31152 429.523285 489.283431 404.123024 500.861844 376.170263 
C 512.440257 348.217502 518.4 318.255851 518.4 288 
M 288 288 
C 288 288 288 288 288 288 
C 288 288 288 288 288 288 
C 288 288 288 288 288 288 
C 288 288 288 288 288 288 
C 288 288 288 288 288 288 
C 288 288 288 288 288 288 
C 288 288 288 288 288 288 
C 288 288 288 288 288 288 
C 288 288 288 288 288 288 
C 288 288 288 288 288 288 
C 288 288 288 288 288 288 
C 288 288 288 288 288 288 
C 288 288 288 288 288 288 
C 288 288 288 288 288 288 
C 288 288 288 288 288 288 
C 288 288 288 288 288 288 
M 518.4 288 
z
"/>
  </clipPath>
 </defs>
</svg>
